<?xml version="1.0" encoding="utf-8"?>
<!-- Generator: Adobe Illustrator 26.3.1, SVG Export Plug-In . SVG Version: 6.00 Build 0)  -->
<svg version="1.1" id="Layer_1" xmlns="http://www.w3.org/2000/svg" xmlns:xlink="http://www.w3.org/1999/xlink" x="0px" y="0px"
	 viewBox="0 0 1600 920" style="enable-background:new 0 0 1600 920;" xml:space="preserve">
<style type="text/css">
	.st0{fill:#F4F4F4;}
	.st1{fill:#B2B6BB;}
	.st2{fill:#DADDDF;}
	.st3{opacity:0.15;enable-background:new    ;}
	.st4{fill:#DDDDDD;}
	.st5{fill:none;stroke:#858990;stroke-width:1.356;stroke-miterlimit:10;stroke-dasharray:2.4,2.4;}
	.st6{fill:#FFFFFF;}
	.st7{fill:#858990;}
	.st8{fill:#3F4249;}
	.st9{fill:#4D61FC;}
	.st10{opacity:0.3;fill:#FFFFFF;enable-background:new    ;}
	.st11{opacity:0.7;fill:#FFFFFF;enable-background:new    ;}
	.st12{fill:#B1B5BA;}
	.st13{fill:#61656D;}
	.st14{fill:#C7C7C7;}
	.st15{fill:#21252B;}
	.st16{opacity:0.2;fill:#FFFFFF;enable-background:new    ;}
	.st17{opacity:0.6;fill:#FFFFFF;enable-background:new    ;}
	.st18{opacity:0.8;fill:#FFFFFF;enable-background:new    ;}
	.st19{fill:none;stroke:#21252B;stroke-width:0.7353;stroke-linecap:round;stroke-miterlimit:10;}
	.st20{opacity:0.3;enable-background:new    ;}
	.st21{fill:#868A91;}
	.st22{fill:#966363;}
	.st23{opacity:0.15;}
	.st24{opacity:0.15;fill:none;stroke:#000000;stroke-width:1.3154;stroke-miterlimit:10;enable-background:new    ;}
	.st25{opacity:0.3;}
	.st26{fill:none;stroke:#FFFFFF;stroke-width:1.3154;stroke-linecap:round;stroke-linejoin:round;stroke-miterlimit:10;}
	
		.st27{opacity:0.3;fill:none;stroke:#000000;stroke-width:1.4907;stroke-linecap:round;stroke-linejoin:round;stroke-miterlimit:10;enable-background:new    ;}
	.st28{opacity:0.15;fill:none;stroke:#000000;stroke-width:1.403;stroke-miterlimit:10;enable-background:new    ;}
	.st29{opacity:0.15;fill:none;stroke:#000000;stroke-width:0.7398;stroke-miterlimit:10;enable-background:new    ;}
	.st30{opacity:0.4;enable-background:new    ;}
	.st31{fill:#F69797;}
	.st32{opacity:0.2;enable-background:new    ;}
	.st33{opacity:0.6;enable-background:new    ;}
	.st34{opacity:0.6;}
	.st35{fill:none;stroke:#F69797;stroke-width:1.2986;stroke-linecap:round;stroke-miterlimit:10;}
	.st36{fill:#EAEAEA;}
</style>
<path class="st0" d="M1322.9,918.9l68.1-285.2c3.8-16.1,3.8-32.9-0.1-49L1289,169.4c-5.4-21.9-23.6-38.3-45.9-41.4L581,36.4
	c-16.3-2.2-32.7,2.9-44.7,14L231.6,330.3c-11.5,10.6-18,25.6-17.8,41.3l7.6,547.4L1322.9,918.9L1322.9,918.9z"/>
<path class="st0" d="M1323.2,918.8l68.1-285.2c3.8-16.1,3.8-32.9-0.1-49l-101.8-415.4c-5.4-21.9-23.6-38.3-45.9-41.4L581.4,36.2
	c-16.3-2.2-32.7,2.9-44.7,14l-304.8,280c-11.5,10.6-18,25.6-17.8,41.3l7.6,547.4L1323.2,918.8L1323.2,918.8z"/>
<path class="st1" d="M1216.7,686h-51.9c1.4,0,2.6,1.2,2.6,2.6h42.6v2.6h6.7c1.4,0,2.6-1.2,2.6-2.6
	C1219.3,687.2,1218.2,686,1216.7,686z"/>
<path class="st1" d="M1164.8,691.2h-5.6l8.2,5.4h-8.2v174.5h27.8h12.7h10.3V691.2H1164.8z"/>
<path class="st1" d="M1167.4,688.7c0,1.4-1.2,2.6-2.6,2.6h45.2v-2.6H1167.4z"/>
<path class="st2" d="M839.7,808.1v49.6h172.5v-49.6H839.7z M983.2,825.3c-0.3,0.4-0.7,0.8-1.1,1.1c-0.6,0.4-1.4,0.7-2.2,0.7
	c-0.2,0-0.5,0-0.7-0.1c-0.1,0-0.2,0-0.3-0.1c-0.1,0-0.2,0-0.3-0.1c-1.6-0.5-2.8-2-2.8-3.8c0-1.8,1.2-3.3,2.8-3.8
	c0.1,0,0.2,0,0.3-0.1c0.1,0,0.2-0.1,0.3-0.1c0.2,0,0.5-0.1,0.7-0.1c0.3,0,0.5,0,0.8,0.1c0.2,0,0.5,0.1,0.7,0.2
	c0.6,0.3,1.2,0.7,1.6,1.2c0.3,0.3,0.5,0.7,0.7,1.2c0.2,0.4,0.2,0.9,0.2,1.4C983.9,823.8,983.6,824.6,983.2,825.3z"/>
<path class="st2" d="M838.6,858.8v-50.7v-1.2v-49v-1.1v-49.6h173.7v-11.9l-181.2-1.6v177.4h7.8h12.7h34.2h12.7h113.8v-12.3H838.6z"
	/>
<path class="st2" d="M1012.3,708.4H839.7v48.4h172.5L1012.3,708.4L1012.3,708.4z M983.6,725.1c-0.2,0.4-0.4,0.8-0.7,1.2
	c-0.4,0.5-1,0.9-1.6,1.2c-0.2,0.1-0.4,0.2-0.7,0.2c-0.3,0.1-0.5,0.1-0.8,0.1s-0.5,0-0.7-0.1c-0.1,0-0.2,0-0.3-0.1
	c-0.1,0-0.2,0-0.3-0.1c-1.6-0.5-2.8-2-2.8-3.8s1.2-3.3,2.8-3.8c0.1,0,0.2,0,0.3-0.1c0.1,0,0.2-0.1,0.3-0.1c0.2,0,0.5-0.1,0.7-0.1
	c0.3,0,0.5,0,0.8,0.1c0.7,0.2,1.4,0.5,1.9,1l0.1,0.1c0.7,0.7,1.2,1.7,1.2,2.8C983.9,724.2,983.8,724.7,983.6,725.1z"/>
<path class="st2" d="M1012.3,757.9H839.7v49h172.5L1012.3,757.9L1012.3,757.9z M983.6,774.3c-0.2,0.4-0.4,0.8-0.7,1.2
	c-0.4,0.5-1,0.9-1.6,1.2c-0.2,0.1-0.4,0.2-0.7,0.2c-0.3,0.1-0.5,0.1-0.8,0.1s-0.5,0-0.7-0.1c-0.1,0-0.2,0-0.3-0.1
	c-0.1,0-0.2,0-0.3-0.1c-1.6-0.5-2.8-2-2.8-3.8s1.2-3.3,2.8-3.8c0.1,0,0.2,0,0.3-0.1c0.1,0,0.2-0.1,0.3-0.1c0.2,0,0.5-0.1,0.7-0.1
	c0.3,0,0.5,0,0.8,0.1c0.2,0,0.5,0.1,0.7,0.2c0.6,0.3,1.2,0.7,1.6,1.2c0.3,0.3,0.5,0.7,0.7,1.2c0.2,0.4,0.2,0.9,0.2,1.4
	S983.8,773.9,983.6,774.3z"/>
<path class="st2" d="M1012.3,695.3v11.9h138.8v49.6v1.1v49v1.2v50.7h-138.8v12.3h129.1h12.7h5.1V696.6L1012.3,695.3z"/>
<path class="st2" d="M1149.9,808.1h-137.6v49.6h137.6V808.1z"/>
<path class="st2" d="M1149.9,757.9h-137.6v49h137.6V757.9z"/>
<path class="st2" d="M1149.9,708.4h-137.6v48.4h137.6V708.4z"/>
<path class="st1" d="M838.6,756.8h1.1v-48.4h172.6v-1.2H838.6V756.8z"/>
<path class="st1" d="M839.7,857.6v-49.5h-1.1v50.7h173.7v-1.2H839.7z"/>
<path class="st1" d="M839.8,757.9h-1.2v49h1.2V757.9z"/>
<path class="st1" d="M1149.9,708.4v48.4h1.2v-49.6h-138.8v1.2H1149.9z"/>
<path class="st1" d="M1151.1,757.9h-1.2v49h1.2V757.9z"/>
<path class="st1" d="M1149.9,857.6h-137.6v1.2h138.8v-50.7h-1.2V857.6z"/>
<path class="st2" d="M1012.3,688.7h146.9h5.6v-2.6h0.1H825.1c-1.4,0-2.6,1.2-2.6,2.6c0,1.4,1.2,2.6,2.6,2.6h5.9v-2.6H1012.3z"/>
<path class="st2" d="M1164.8,688.7h2.6c0-1.4-1.2-2.6-2.6-2.6h-0.1v2.6H1164.8z"/>
<path class="st2" d="M1164.8,688.7h-5.6v2.6h5.6V688.7z"/>
<path class="st2" d="M1164.8,691.2c1.5,0,2.6-1.2,2.6-2.6h-2.6V691.2z"/>
<path class="st2" d="M1012.3,688.7H831.1v2.6h181.2V688.7z"/>
<path class="st2" d="M1159.2,688.7h-146.9v2.6h146.9V688.7z"/>
<path class="st1" d="M1012.2,806.9H839.7v1.2h172.5V806.9z"/>
<path class="st1" d="M1149.9,806.9h-137.6v1.2h137.6V806.9z"/>
<path class="st1" d="M839.8,806.9h-1.2v1.2h1.2V806.9z"/>
<path class="st1" d="M1151.1,806.9h-1.2v1.2h1.2V806.9z"/>
<path class="st1" d="M1012.2,756.8H839.7v1.2h172.5V756.8z"/>
<path class="st1" d="M1149.9,756.8h-137.6v1.2h137.6V756.8z"/>
<path class="st1" d="M839.8,756.8h-1.2v1.2h1.2V756.8z"/>
<path class="st1" d="M1151.1,756.8h-1.2v1.2h1.2V756.8z"/>
<path class="st1" d="M983.9,723.8c0-1.1-0.4-2.1-1.2-2.8C983.4,721.6,983.9,722.7,983.9,723.8z"/>
<path class="st1" d="M981.3,723.8c0-1.8-1.1-3.3-2.7-3.8c-1.6,0.5-2.8,2-2.8,3.8c0,1.8,1.2,3.3,2.8,3.8
	C980.2,727,981.3,725.5,981.3,723.8z"/>
<path class="st2" d="M978.6,720c0.1,0,0.2,0,0.3-0.1C978.7,719.9,978.6,719.9,978.6,720z"/>
<path class="st3" d="M978.6,720c0.1,0,0.2,0,0.3-0.1C978.7,719.9,978.6,719.9,978.6,720z"/>
<path class="st2" d="M978.6,727.6c0.1,0,0.2,0,0.3,0.1C978.7,727.6,978.7,727.6,978.6,727.6z"/>
<path class="st3" d="M978.6,727.6c0.1,0,0.2,0,0.3,0.1C978.7,727.6,978.7,727.6,978.6,727.6z"/>
<path class="st1" d="M982.6,720.8c-0.5-0.5-1.2-0.9-1.9-1c-0.3-0.1-0.5-0.1-0.8-0.1c-0.3,0-0.5,0-0.7,0.1c-0.1,0-0.2,0-0.3,0.1
	c-0.1,0-0.2,0-0.2,0.1c1.6,0.5,2.7,2,2.7,3.8c0,1.8-1.1,3.3-2.7,3.8c0.1,0,0.2,0.1,0.2,0.1c0.1,0,0.2,0.1,0.3,0.1
	c0.2,0,0.5,0.1,0.7,0.1c0.3,0,0.5,0,0.8-0.1c0.2,0,0.5-0.1,0.7-0.2c0.6-0.3,1.2-0.7,1.6-1.2c0.3-0.3,0.5-0.7,0.7-1.2
	c0.2-0.4,0.2-0.9,0.2-1.4c0-1.1-0.4-2.1-1.2-2.8C982.6,720.9,982.6,720.9,982.6,720.8z"/>
<path class="st3" d="M982.6,720.8c-0.5-0.5-1.2-0.9-1.9-1c-0.3-0.1-0.5-0.1-0.8-0.1c-0.3,0-0.5,0-0.7,0.1c-0.1,0-0.2,0-0.3,0.1
	c-0.1,0-0.2,0-0.2,0.1c1.6,0.5,2.7,2,2.7,3.8c0,1.8-1.1,3.3-2.7,3.8c0.1,0,0.2,0.1,0.2,0.1c0.1,0,0.2,0.1,0.3,0.1
	c0.2,0,0.5,0.1,0.7,0.1c0.3,0,0.5,0,0.8-0.1c0.2,0,0.5-0.1,0.7-0.2c0.6-0.3,1.2-0.7,1.6-1.2c0.3-0.3,0.5-0.7,0.7-1.2
	c0.2-0.4,0.2-0.9,0.2-1.4c0-1.1-0.4-2.1-1.2-2.8C982.6,720.9,982.6,720.9,982.6,720.8z"/>
<path class="st1" d="M981.3,773c0-1.8-1.1-3.3-2.7-3.8c-1.6,0.5-2.8,2-2.8,3.8c0,1.8,1.2,3.3,2.8,3.8
	C980.2,776.2,981.3,774.7,981.3,773z"/>
<path class="st2" d="M978.6,769.1C978.6,769.2,978.6,769.2,978.6,769.1c0.1,0,0.2,0,0.3-0.1C978.7,769.1,978.6,769.1,978.6,769.1z"
	/>
<path class="st3" d="M978.6,769.1C978.6,769.2,978.6,769.2,978.6,769.1c0.1,0,0.2,0,0.3-0.1C978.7,769.1,978.6,769.1,978.6,769.1z"
	/>
<path class="st2" d="M978.6,776.8c0.1,0,0.2,0,0.3,0.1C978.7,776.8,978.7,776.8,978.6,776.8C978.6,776.8,978.6,776.7,978.6,776.8z"
	/>
<path class="st3" d="M978.6,776.8c0.1,0,0.2,0,0.3,0.1C978.7,776.8,978.7,776.8,978.6,776.8C978.6,776.8,978.6,776.7,978.6,776.8z"
	/>
<path class="st1" d="M982.9,770.4c-0.4-0.5-1-0.9-1.6-1.2c-0.2-0.1-0.4-0.2-0.7-0.2c-0.3-0.1-0.5-0.1-0.8-0.1s-0.5,0-0.7,0.1
	c-0.1,0-0.2,0-0.3,0.1c-0.1,0-0.2,0-0.2,0.1c1.6,0.5,2.7,2,2.7,3.8c0,1.8-1.1,3.3-2.7,3.8c0.1,0,0.2,0.1,0.2,0.1
	c0.1,0,0.2,0.1,0.3,0.1c0.2,0,0.5,0.1,0.7,0.1c0.3,0,0.5,0,0.8-0.1c0.2,0,0.5-0.1,0.7-0.2c0.6-0.3,1.2-0.7,1.6-1.2
	c0.3-0.3,0.5-0.7,0.7-1.2c0.2-0.4,0.2-0.9,0.2-1.4s-0.1-1-0.2-1.4C983.5,771.1,983.2,770.7,982.9,770.4z"/>
<path class="st3" d="M982.9,770.4c-0.4-0.5-1-0.9-1.6-1.2c-0.2-0.1-0.4-0.2-0.7-0.2c-0.3-0.1-0.5-0.1-0.8-0.1s-0.5,0-0.7,0.1
	c-0.1,0-0.2,0-0.3,0.1c-0.1,0-0.2,0-0.2,0.1c1.6,0.5,2.7,2,2.7,3.8c0,1.8-1.1,3.3-2.7,3.8c0.1,0,0.2,0.1,0.2,0.1
	c0.1,0,0.2,0.1,0.3,0.1c0.2,0,0.5,0.1,0.7,0.1c0.3,0,0.5,0,0.8-0.1c0.2,0,0.5-0.1,0.7-0.2c0.6-0.3,1.2-0.7,1.6-1.2
	c0.3-0.3,0.5-0.7,0.7-1.2c0.2-0.4,0.2-0.9,0.2-1.4s-0.1-1-0.2-1.4C983.5,771.1,983.2,770.7,982.9,770.4z"/>
<path class="st1" d="M981.3,823c0-1.8-1.1-3.3-2.7-3.8c-1.6,0.5-2.8,2-2.8,3.8c0,1.8,1.2,3.3,2.8,3.8
	C980.2,826.3,981.3,824.8,981.3,823z"/>
<path class="st1" d="M982.1,826.3c0.4-0.3,0.8-0.7,1.1-1.1C982.9,825.7,982.5,826.1,982.1,826.3z"/>
<path class="st2" d="M978.6,819.2c0.1,0,0.2,0,0.3-0.1C978.7,819.2,978.6,819.2,978.6,819.2z"/>
<path class="st3" d="M978.6,819.2c0.1,0,0.2,0,0.3-0.1C978.7,819.2,978.6,819.2,978.6,819.2z"/>
<path class="st2" d="M978.6,826.8c0.1,0,0.2,0,0.3,0.1C978.7,826.9,978.7,826.8,978.6,826.8z"/>
<path class="st3" d="M978.6,826.8c0.1,0,0.2,0,0.3,0.1C978.7,826.9,978.7,826.8,978.6,826.8z"/>
<path class="st1" d="M982.9,820.5c-0.4-0.5-1-0.9-1.6-1.2c-0.2-0.1-0.4-0.2-0.7-0.2c-0.3-0.1-0.5-0.1-0.8-0.1s-0.5,0-0.7,0.1
	c-0.1,0-0.2,0-0.3,0.1c-0.1,0-0.2,0-0.2,0.1c1.6,0.5,2.7,2,2.7,3.8s-1.1,3.3-2.7,3.8c0.1,0,0.2,0.1,0.2,0.1c0.1,0,0.2,0.1,0.3,0.1
	c0.2,0,0.5,0.1,0.7,0.1c0.8,0,1.6-0.3,2.2-0.7c0.4-0.3,0.8-0.7,1.1-1.1c0.4-0.6,0.7-1.4,0.7-2.2c0-0.5-0.1-1-0.2-1.4
	C983.5,821.2,983.2,820.8,982.9,820.5z"/>
<path class="st3" d="M982.9,820.5c-0.4-0.5-1-0.9-1.6-1.2c-0.2-0.1-0.4-0.2-0.7-0.2c-0.3-0.1-0.5-0.1-0.8-0.1s-0.5,0-0.7,0.1
	c-0.1,0-0.2,0-0.3,0.1c-0.1,0-0.2,0-0.2,0.1c1.6,0.5,2.7,2,2.7,3.8s-1.1,3.3-2.7,3.8c0.1,0,0.2,0.1,0.2,0.1c0.1,0,0.2,0.1,0.3,0.1
	c0.2,0,0.5,0.1,0.7,0.1c0.8,0,1.6-0.3,2.2-0.7c0.4-0.3,0.8-0.7,1.1-1.1c0.4-0.6,0.7-1.4,0.7-2.2c0-0.5-0.1-1-0.2-1.4
	C983.5,821.2,983.2,820.8,982.9,820.5z"/>
<path class="st1" d="M1167.4,696.6l-8.2-5.4v5.4H1167.4z"/>
<path class="st1" d="M1012.3,691.2H831.1v2.5l181.2,1.6V691.2z"/>
<path class="st1" d="M1012.3,695.3l146.9,1.3v-5.4h-146.9V695.3z"/>
<path class="st2" d="M1193.3,895.9l5.4,21.3c0.4,1.1,1.4,1.8,2.5,1.8c0.4,0,0.7-0.1,1-0.2l-4-21.6L1193.3,895.9z"/>
<path class="st1" d="M1187,871.1l6.3,24.8L1187,871.1z"/>
<path class="st1" d="M1193.3,895.9l4.9,1.2l4,21.6c0.1,0,0.1-0.1,0.2-0.1s0.2-0.1,0.2-0.1c0.1,0,0.1-0.1,0.2-0.1
	c0.1-0.1,0.1-0.1,0.2-0.2l0.1-0.1c0.1-0.1,0.2-0.3,0.3-0.4c0,0,0-0.1,0.1-0.1c0-0.1,0.1-0.2,0.1-0.3s0-0.1,0-0.2
	c0-0.1,0-0.2,0.1-0.4c0-0.1,0-0.1,0-0.2c0-0.2,0-0.4-0.1-0.5l-3.7-41l-0.3-3.7H1187L1193.3,895.9z"/>
<path class="st2" d="M1142.6,874.7l-1.2-3.6l11.7,46c0.4,1.1,1.4,1.8,2.5,1.8c0.4,0,0.7-0.1,1-0.2l-6.8-42.7L1142.6,874.7z"/>
<path class="st1" d="M1158.2,916.3c0-0.2,0-0.4,0-0.5l-3.7-41l3.7,41C1158.2,916,1158.2,916.2,1158.2,916.3z"/>
<path class="st1" d="M1141.4,871.1l1.2,3.6l7.2,1.4l6.8,42.7c0.1,0,0.1-0.1,0.2-0.1c0.1,0,0.2-0.1,0.2-0.1c0.1,0,0.1-0.1,0.2-0.1
	c0.1-0.1,0.1-0.1,0.2-0.2l0.1-0.1c0.1-0.1,0.2-0.3,0.3-0.4c0,0,0-0.1,0.1-0.1c0-0.1,0.1-0.2,0.1-0.3s0-0.1,0-0.2
	c0-0.1,0-0.2,0.1-0.4c0-0.1,0-0.1,0-0.2c0-0.2,0-0.4-0.1-0.5l-3.7-41l-0.3-3.7L1141.4,871.1z"/>
<path class="st2" d="M888,894.9l-4.3-1.1l-2,22c-0.3,1.6,0.9,3.2,2.6,3.2h-0.1L888,894.9z"/>
<path class="st1" d="M885.8,918.5c-0.4,0.3-1,0.5-1.5,0.5C884.8,918.9,885.4,918.8,885.8,918.5z"/>
<path class="st1" d="M886.8,917.2c0,0.1-0.1,0.3-0.2,0.4C886.7,917.4,886.7,917.3,886.8,917.2l11.7-46L886.8,917.2z"/>
<path class="st1" d="M898.5,871.1h-12.7l-2.1,22.7l4.3,1.1l-3.8,24h0.1c0.6,0,1.1-0.2,1.5-0.5c0.2-0.2,0.4-0.3,0.6-0.6
	c0.1-0.1,0.2-0.2,0.2-0.3c0.1-0.1,0.1-0.2,0.2-0.4L898.5,871.1z"/>
<path class="st2" d="M843.9,875l-5.2-1l-3.8,41.8c-0.3,1.6,0.9,3.2,2.6,3.2h-0.1L843.9,875z"/>
<path class="st1" d="M838.6,918.7c-0.2,0.1-0.5,0.2-0.8,0.2C838.1,918.9,838.4,918.8,838.6,918.7z"/>
<path class="st1" d="M838.3,874h0.4l0.2-2.9L838.3,874z"/>
<path class="st1" d="M838.9,871.1l-0.3,2.9l5.2,1l-6.6,43.9h0.1c0.1,0,0.3,0,0.4,0c0.3,0,0.5-0.1,0.8-0.2c0.1-0.1,0.2-0.1,0.3-0.2
	c0.2-0.2,0.4-0.3,0.6-0.6c0.2-0.2,0.3-0.5,0.4-0.7l11.7-46L838.9,871.1z"/>
<path class="st4" d="M980.1,293.3c0.4-14.9,1.1-46.5,1.5-61.4c0.1-4.5-3.5-8.3-8-8.4l-61.4-1.5c-4.5-0.1-8.3,3.5-8.4,8l-1.5,61.4
	c-0.1,4.5,3.5,8.3,8,8.4c14.9,0.4,46.5,1.1,61.4,1.5C976.2,301.4,979.9,297.8,980.1,293.3z"/>
<path class="st5" d="M980.1,293.3c0.4-14.9,1.1-46.5,1.5-61.4c0.1-4.5-3.5-8.3-8-8.4l-61.4-1.5c-4.5-0.1-8.3,3.5-8.4,8l-1.5,61.4
	c-0.1,4.5,3.5,8.3,8,8.4c14.9,0.4,46.5,1.1,61.4,1.5C976.2,301.4,979.9,297.8,980.1,293.3z"/>
<path class="st6" d="M968.9,278.3c-1-14.9-3-46.4-4-61.3c-0.3-4.5-4.2-7.9-8.7-7.6l-61.3,4c-4.5,0.3-7.9,4.2-7.6,8.7l4,61.3
	c0.3,4.5,4.2,7.9,8.7,7.6c14.9-1,46.4-3,61.3-4C965.8,286.7,969.2,282.9,968.9,278.3z"/>
<path class="st7" d="M926,232.3l-4.1,11.4c-0.1,0.4-0.5,0.7-0.9,0.7l-11.9,2c-1,0.2-1.3,1.4-0.5,2l9.5,7.4c0.3,0.3,0.5,0.7,0.4,1.1
	l-1.8,12c-0.1,1,0.9,1.7,1.7,1.1l10-6.8c0.3-0.2,0.8-0.3,1.1-0.1l10.8,5.4c0.9,0.4,1.9-0.4,1.6-1.3l-3.3-11.6
	c-0.1-0.4,0-0.8,0.3-1.1l8.5-8.6c0.7-0.7,0.2-1.9-0.8-1.9l-12.1-0.4c-0.4,0-0.8-0.2-1-0.6l-5.6-10.7
	C927.6,231.3,926.3,231.4,926,232.3z"/>
<path class="st7" d="M823.3,512.3H665c-2.3,0-4.2-1.9-4.2-4.2v-88c0-2.3,1.9-4.2,4.2-4.2h158.2c2.3,0,4.2,1.9,4.2,4.2v88
	C827.5,510.4,825.6,512.3,823.3,512.3z"/>
<path class="st4" d="M819.5,512.3H661.3c-2.3,0-4.2-1.9-4.2-4.2v-88c0-2.3,1.9-4.2,4.2-4.2h158.2c2.3,0,4.2,1.9,4.2,4.2v88
	C823.7,510.4,821.8,512.3,819.5,512.3z"/>
<path class="st7" d="M709.7,444h-5.9l-14.7,20.7l14.7,20.7h5.9l5.7-5.7l-15-15l15-15L709.7,444z"/>
<path class="st8" d="M703.8,444l-20.7,20.7l20.7,20.7l5.7-5.7l-15-15l15-15L703.8,444z"/>
<path class="st7" d="M779.4,444h-5.9l0.7,6.2l14.5,14.5l-14.5,14.5l-0.7,6.2h5.9l20.7-20.7L779.4,444z"/>
<path class="st8" d="M773.5,444l-5.7,5.7l15,15l-15,15l5.7,5.7l20.7-20.7L773.5,444z"/>
<path class="st7" d="M745.2,428.3l-20.5,70.2h5.9l28-67.1l-7.5-3.1H745.2z"/>
<path class="st8" d="M717.2,495.4l7.5,3.1l28-67.1l-7.5-3.1L717.2,495.4z"/>
<path class="st4" d="M1306.3,538.9c-16.8,0-30.4-13.6-30.4-30.4c0-16.8,13.6-30.4,30.4-30.4c16.8,0,30.4,13.6,30.4,30.4
	C1336.7,525.3,1323.1,538.9,1306.3,538.9z"/>
<path class="st7" d="M1315.2,504.9c-0.9,0-1.7,0.3-2.3,0.9l-9.8-5.7c0-0.2,0.1-0.4,0.1-0.6c0-2-1.6-3.7-3.7-3.7
	c-2,0-3.7,1.6-3.7,3.7c0,2.1,1.6,3.7,3.7,3.7c0.9,0,1.7-0.3,2.3-0.9l9.8,5.7c0,0.2-0.1,0.4-0.1,0.6s0,0.4,0.1,0.6l-9.8,5.7
	c-0.6-0.5-1.4-0.9-2.3-0.9c-2,0-3.7,1.6-3.7,3.7c0,2.1,1.6,3.7,3.7,3.7c2,0,3.7-1.6,3.7-3.7c0-0.2,0-0.4-0.1-0.6l9.8-5.7
	c0.6,0.5,1.4,0.9,2.3,0.9c2,0,3.7-1.6,3.7-3.7C1318.9,506.5,1317.2,504.9,1315.2,504.9z"/>
<path class="st9" d="M1103.8,261v160.9c0,2.2,1.8,4,4,4h247.1c2.2,0,4-1.8,4-4V261c0-2.2-1.8-4-4-4h-247.1
	C1105.6,257,1103.8,258.8,1103.8,261z"/>
<path class="st10" d="M1103.8,261v160.9c0,2.2,1.8,4,4,4h247.1c2.2,0,4-1.8,4-4V261c0-2.2-1.8-4-4-4h-247.1
	C1105.6,257,1103.8,258.8,1103.8,261z"/>
<path class="st9" d="M1099.3,261v160.9c0,2.2,1.8,4,4,4h247.1c2.2,0,4-1.8,4-4V261c0-2.2-1.8-4-4-4h-247.1
	C1101,257,1099.3,258.8,1099.3,261z"/>
<path class="st11" d="M1099.3,261v160.9c0,2.2,1.8,4,4,4h247.1c2.2,0,4-1.8,4-4V261c0-2.2-1.8-4-4-4h-247.1
	C1101,257,1099.3,258.8,1099.3,261z"/>
<path class="st9" d="M1249.8,341.5c0,16-13,29-29,29s-29-13-29-29s13-29,29-29C1236.9,312.5,1249.8,325.5,1249.8,341.5z"/>
<path class="st6" d="M1215.1,353.7v-24.5l18.2,12.3L1215.1,353.7z"/>
<path class="st6" d="M1350.4,425.9h-247.2c-2.2,0-3.9-1.8-3.9-3.9v-10.6h255.1V422C1354.3,424.1,1352.6,425.9,1350.4,425.9z"/>
<path class="st12" d="M1328.9,417.6h-211.8v2.6h211.8V417.6z"/>
<path class="st12" d="M1110.2,422.8h-6.7c-0.4,0-0.8-0.4-0.8-0.8v-6.7c0-0.4,0.4-0.8,0.8-0.8h6.7c0.4,0,0.8,0.4,0.8,0.8v6.7
	C1111,422.5,1110.7,422.8,1110.2,422.8z"/>
<path class="st13" d="M1106.3,416.6h-1.2v4.1h1.2V416.6z"/>
<path class="st13" d="M1108.5,416.6h-1.2v4.1h1.2V416.6z"/>
<path class="st14" d="M1350.5,423.1h-6.7c-0.4,0-0.8-0.4-0.8-0.8v-6.7c0-0.4,0.4-0.8,0.8-0.8h6.7c0.4,0,0.8,0.4,0.8,0.8v6.7
	C1351.3,422.8,1350.9,423.1,1350.5,423.1z"/>
<path class="st13" d="M1345.8,417.9h-1.6v2h1.6V417.9z"/>
<path class="st13" d="M1347.6,421.3l-2.4-1.3v-2.1l2.4-1.3V421.3z"/>
<path class="st13" d="M1348.8,417.4c0.1-0.1,0.2-0.2,0.4-0.4c0.4,0.4,0.7,0.9,0.8,1.5c0.1,0.9-0.1,1.7-0.8,2.3
	c-0.1-0.1-0.3-0.3-0.4-0.4c0.4-0.4,0.6-0.9,0.6-1.5C1349.5,418.3,1349.3,417.8,1348.8,417.4z"/>
<path class="st13" d="M1348.5,420.1c-0.1-0.1-0.2-0.2-0.4-0.4c0.2-0.2,0.3-0.5,0.3-0.8s-0.1-0.6-0.3-0.8c0.1-0.1,0.2-0.2,0.4-0.4
	C1349.1,418.4,1349.1,419.4,1348.5,420.1z"/>
<path class="st13" d="M1159.7,419c0,0.5,0.1,0.9,0.4,1.3h-43.3v-2.6h43.3C1159.8,418,1159.7,418.5,1159.7,419z"/>
<path class="st13" d="M1163.8,419c0,0.6-0.1,1.2-0.4,1.7c-0.7,1.3-2,2.2-3.6,2.2c-1.6,0-2.9-0.9-3.5-2.2c-0.3-0.5-0.4-1.1-0.4-1.7
	c0-0.6,0.2-1.2,0.4-1.7c0.6-1.3,2-2.2,3.5-2.2c1.6,0,2.9,0.9,3.5,2.2C1163.7,417.8,1163.8,418.3,1163.8,419z"/>
<path class="st9" d="M1108.2,267.8c1.4,0,2.5-1.1,2.5-2.5c0-1.4-1.1-2.5-2.5-2.5s-2.5,1.1-2.5,2.5
	C1105.7,266.6,1106.8,267.8,1108.2,267.8z"/>
<path class="st13" d="M1117.4,267.8c1.4,0,2.5-1.1,2.5-2.5c0-1.4-1.1-2.5-2.5-2.5s-2.5,1.1-2.5,2.5
	C1114.9,266.6,1116,267.8,1117.4,267.8z"/>
<path class="st15" d="M1126.5,267.8c1.4,0,2.5-1.1,2.5-2.5c0-1.4-1.1-2.5-2.5-2.5s-2.5,1.1-2.5,2.5
	C1124,266.6,1125.1,267.8,1126.5,267.8z"/>
<path class="st12" d="M1132.6,557.5h102.9c4,0,7.2,3.2,7.2,7.2v135.4c0,4-3.2,7.2-7.2,7.2h-102.9c-4,0-7.2-3.2-7.2-7.2V564.7
	C1125.4,560.8,1128.6,557.5,1132.6,557.5z"/>
<path class="st6" d="M1129.2,557.5h102.9c4,0,7.2,3.2,7.2,7.2v135.4c0,4-3.2,7.2-7.2,7.2h-102.9c-4,0-7.2-3.2-7.2-7.2V564.7
	C1122,560.8,1125.2,557.5,1129.2,557.5z"/>
<path class="st9" d="M1205.1,633.2h-49c-2,0-3.6-1.6-3.6-3.6v-49c0-2,1.6-3.6,3.6-3.6h49c2,0,3.6,1.6,3.6,3.6v49
	C1208.7,631.6,1207.1,633.2,1205.1,633.2z"/>
<path class="st11" d="M1205.1,633.2h-49c-2,0-3.6-1.6-3.6-3.6v-49c0-2,1.6-3.6,3.6-3.6h49c2,0,3.6,1.6,3.6,3.6v49
	C1208.7,631.6,1207.1,633.2,1205.1,633.2z"/>
<path class="st9" d="M1180.5,595.8c2.8,0,5-2.2,5-5c0-2.8-2.2-5-5-5s-5,2.2-5,5C1175.5,593.5,1177.7,595.8,1180.5,595.8z"/>
<path class="st9" d="M1152.5,629.6v-13.5l19-14.2c0.8-0.6,1.8-0.5,2.5,0.1l6.6,5.8l13.4-10.5c0.8-0.6,1.8-0.6,2.6,0.1l12,10.5v21.8
	c0,2-1.6,3.6-3.6,3.6h-49C1154.1,633.2,1152.5,631.6,1152.5,629.6z"/>
<path class="st9" d="M1210.7,655.6h-60.3c-1,0-1.8-0.8-1.8-1.8v-3.7c0-1,0.8-1.8,1.8-1.8h60.3c1,0,1.8,0.8,1.8,1.8v3.7
	C1212.5,654.8,1211.7,655.6,1210.7,655.6z"/>
<path class="st10" d="M1210.7,655.6h-60.3c-1,0-1.8-0.8-1.8-1.8v-3.7c0-1,0.8-1.8,1.8-1.8h60.3c1,0,1.8,0.8,1.8,1.8v3.7
	C1212.5,654.8,1211.7,655.6,1210.7,655.6z"/>
<path class="st13" d="M1210.7,673.3h-60.2c-1,0-1.8-0.8-1.8-1.8s0.8-1.8,1.8-1.8h60.2c1,0,1.8,0.8,1.8,1.8
	S1211.7,673.3,1210.7,673.3z"/>
<path class="st13" d="M1199.9,687.8h-38.6c-1,0-1.8-0.8-1.8-1.8s0.8-1.8,1.8-1.8h38.6c1,0,1.8,0.8,1.8,1.8
	C1201.8,686.9,1200.9,687.8,1199.9,687.8z"/>
<path class="st9" d="M581.9,148h266.3c4.8,0,8.6,3.9,8.6,8.6v145.9c0,4.8-3.9,8.6-8.6,8.6H581.9c-4.8,0-8.6-3.9-8.6-8.6V156.6
	C573.3,151.9,577.1,148,581.9,148z"/>
<path class="st16" d="M581.9,148h266.3c4.8,0,8.6,3.9,8.6,8.6v145.9c0,4.8-3.9,8.6-8.6,8.6H581.9c-4.8,0-8.6-3.9-8.6-8.6V156.6
	C573.3,151.9,577.1,148,581.9,148z"/>
<path class="st9" d="M577.8,148h266.3c4.8,0,8.6,3.9,8.6,8.6v145.9c0,4.8-3.9,8.6-8.6,8.6H577.8c-4.8,0-8.6-3.9-8.6-8.6V156.6
	C569.1,151.9,573,148,577.8,148z"/>
<path class="st17" d="M577.8,148h266.3c4.8,0,8.6,3.9,8.6,8.6v145.9c0,4.8-3.9,8.6-8.6,8.6H577.8c-4.8,0-8.6-3.9-8.6-8.6V156.6
	C569.1,151.9,573,148,577.8,148z"/>
<path class="st9" d="M819.8,268.5H752c-2.7,0-5-2.2-5-5v-67.8c0-2.7,2.2-5,5-5h67.8c2.7,0,5,2.2,5,5v67.8
	C824.7,266.3,822.5,268.5,819.8,268.5z"/>
<path class="st9" d="M819.8,268.5H752c-2.7,0-5-2.2-5-5v-67.8c0-2.7,2.2-5,5-5h67.8c2.7,0,5,2.2,5,5v67.8
	C824.7,266.3,822.5,268.5,819.8,268.5z"/>
<path class="st18" d="M819.8,268.5H752c-2.7,0-5-2.2-5-5v-67.8c0-2.7,2.2-5,5-5h67.8c2.7,0,5,2.2,5,5v67.8
	C824.7,266.3,822.5,268.5,819.8,268.5z"/>
<path class="st6" d="M785.6,216.8c3.8,0,6.9-3.1,6.9-6.9c0-3.8-3.1-6.9-6.9-6.9c-3.8,0-6.9,3.1-6.9,6.9
	C778.7,213.7,781.8,216.8,785.6,216.8z"/>
<path class="st9" d="M747,263.6v-18.7l26.3-19.6c1.1-0.8,2.5-0.7,3.5,0.1l9.1,8l18.5-14.5c1.1-0.8,2.5-0.8,3.6,0.1l16.7,14.6v30.1
	c0,2.7-2.2,5-5,5H752C749.2,268.5,747,266.3,747,263.6z"/>
<path class="st6" d="M715.8,200.6H600c-1.6,0-2.9-1.3-2.9-2.9v-4.2c0-1.6,1.3-2.9,2.9-2.9h115.8c1.6,0,2.9,1.3,2.9,2.9v4.2
	C718.8,199.3,717.4,200.6,715.8,200.6z"/>
<path class="st9" d="M716.2,226.8H599.6c-1.4,0-2.6-1.1-2.6-2.6c0-1.4,1.1-2.6,2.6-2.6h116.6c1.4,0,2.6,1.1,2.6,2.6
	S717.6,226.8,716.2,226.8z"/>
<path class="st9" d="M662.9,268.8h-63.3c-1.4,0-2.6-1.1-2.6-2.6c0-1.4,1.1-2.6,2.6-2.6h63.3c1.4,0,2.6,1.1,2.6,2.6
	S664.3,268.8,662.9,268.8z"/>
<path class="st9" d="M716.2,247.8H599.6c-1.4,0-2.6-1.1-2.6-2.6c0-1.4,1.1-2.6,2.6-2.6h116.6c1.4,0,2.6,1.1,2.6,2.6
	S717.6,247.8,716.2,247.8z"/>
<path class="st16" d="M716.2,226.8H599.6c-1.4,0-2.6-1.1-2.6-2.6c0-1.4,1.1-2.6,2.6-2.6h116.6c1.4,0,2.6,1.1,2.6,2.6
	S717.6,226.8,716.2,226.8z"/>
<path class="st16" d="M662.9,268.8h-63.3c-1.4,0-2.6-1.1-2.6-2.6c0-1.4,1.1-2.6,2.6-2.6h63.3c1.4,0,2.6,1.1,2.6,2.6
	S664.3,268.8,662.9,268.8z"/>
<path class="st16" d="M716.2,247.8H599.6c-1.4,0-2.6-1.1-2.6-2.6c0-1.4,1.1-2.6,2.6-2.6h116.6c1.4,0,2.6,1.1,2.6,2.6
	S717.6,247.8,716.2,247.8z"/>
<path class="st4" d="M1138.6,210.2c16.8,0,30.4-13.6,30.4-30.4s-13.6-30.4-30.4-30.4c-16.8,0-30.4,13.6-30.4,30.4
	S1121.8,210.2,1138.6,210.2z"/>
<path class="st7" d="M1131,175.7h2.6l5.1-7.6l0.4-4.3c0.1-0.7,0.8-1.1,1.4-0.8c1.1,0.5,2.2,2,2.3,6.2c0,4.7,0,5,0,5l7.9,0.1
	c1,0,1.8,0.8,1.8,1.8c0.1,3,0.2,9,0.2,12.4c0,2.3-1.4,4.4-3.5,5c-0.3,0.1-0.6,0.1-0.9,0.1c-2.1,0-12.9-1.7-12.9-1.7h-4.4V175.7
	L1131,175.7z"/>
<path class="st7" d="M1123.6,175.7l1.6,16.4h4.4v-16.4H1123.6z"/>
<path class="st4" d="M887.2,600.3c-17.8,0-32.2-14.4-32.2-32.2s14.4-32.2,32.2-32.2s32.2,14.4,32.2,32.2
	C919.4,585.8,905,600.3,887.2,600.3z"/>
<path class="st7" d="M897.5,554.3c-0.2-0.6-0.8-1-1.4-0.8c-0.6,0.2-1,0.8-0.8,1.4v0.2l-22.4,12.1c-0.2-0.5-0.8-0.8-1.4-0.6
	s-1,0.8-0.8,1.4l2.9,9.8c0.2,0.6,0.8,1,1.4,0.8s0.9-0.7,0.8-1.3l3.9-0.3v1.4c0,1.4,1.1,2.6,2.6,2.6h6.5c1.4,0,2.6-1.1,2.6-2.6v-2.3
	l9.9-0.7v0.2c0.2,0.6,0.8,1,1.4,0.8c0.6-0.2,1-0.8,0.8-1.4L897.5,554.3z M889.6,578.6c0,0.4-0.4,0.8-0.8,0.8h-6.5
	c-0.4,0-0.8-0.4-0.8-0.8V577l8-0.6L889.6,578.6L889.6,578.6z"/>
<path class="st1" d="M1339.1,920.1H206.5c-0.4,0-0.6-0.2-0.6-0.6s0.2-0.6,0.6-0.6h1132.7c0.4,0,0.6,0.2,0.6,0.6
	S1339.4,920.1,1339.1,920.1z"/>
<path class="st19" d="M291,745.4l-5.7,140.8"/>
<path class="st19" d="M249.6,806.6l25.3,29.7"/>
<path class="st19" d="M308.5,841.9l-22.8,34.6"/>
<path class="st19" d="M319.6,783.8l-31.4,35.9"/>
<path class="st9" d="M317.5,803c7.4-8.7,9.7-19.1,5-23c-4.7-4-14.5-0.1-21.9,8.6c-7.4,8.7-9.7,19.1-5,23
	C300.2,815.7,310,811.8,317.5,803z"/>
<path class="st20" d="M322.8,780.4l-27.4,31.2c0.1,0,0.1,0.1,0.2,0.1c4.7,4,14.5,0.1,21.9-8.6C324.8,794.6,327.1,784.6,322.8,780.4z
	"/>
<path class="st9" d="M264.7,824.1c3.6-3,2-10.9-3.6-17.7c-5.6-6.8-13.1-9.9-16.7-6.9c-3.6,3-2,10.9,3.6,17.7
	C253.6,824,261.1,827.1,264.7,824.1z"/>
<path class="st20" d="M244.1,799.7l20.7,24.3l-0.1,0.1c-3.6,3-11.1-0.1-16.8-6.9C242.5,810.6,240.8,802.8,244.1,799.7z"/>
<path class="st19" d="M253.4,846.9l26.7,20.8"/>
<path class="st9" d="M271.8,860.9c2.9-3.7-0.3-11.1-7.2-16.6c-6.9-5.5-14.9-7-17.8-3.4c-2.9,3.7,0.3,11.1,7.2,16.6
	C260.8,863.1,268.8,864.6,271.8,860.9z"/>
<path class="st20" d="M246.6,841.3l25.2,19.6l-0.1,0.1c-2.9,3.7-10.9,2.2-17.8-3.3C247.2,852.3,244,845,246.6,841.3z"/>
<path class="st9" d="M301.4,755.9c0.5-11.5-3.9-21-9.9-21.3c-6-0.3-11.3,8.8-11.8,20.3c-0.5,11.5,3.9,21,9.9,21.3
	C295.6,776.5,300.9,767.4,301.4,755.9z"/>
<path class="st20" d="M279.7,755.1c0.5-11.4,5.8-20.5,11.8-20.2l-1.9,41.5C283.6,776,279.2,766.5,279.7,755.1z"/>
<path class="st9" d="M310.9,854.9c5-7.8,5.5-16.4,1.2-19.2s-11.9,1.3-16.9,9.1c-5,7.8-5.5,16.4-1.2,19.2
	C298.4,866.8,305.9,862.7,310.9,854.9z"/>
<path class="st20" d="M295.3,844.9c-4.9,7.6-5.5,16-1.5,18.9l18.3-28l-1.1-0.5C306.7,833.7,299.9,837.7,295.3,844.9z"/>
<path class="st19" d="M282.8,884.5l-15.6-97.2"/>
<path class="st9" d="M268.7,800.9c5.3-0.9,8.4-9.8,6.7-20c-1.6-10.2-7.3-17.8-12.6-16.9c-5.3,0.9-8.4,9.8-6.7,20
	C257.7,794.1,263.3,801.7,268.7,800.9z"/>
<path class="st20" d="M256,784c-1.6-10.2,1.4-19.2,6.7-20.1l5.9,37C263.3,801.9,257.6,794.3,256,784z"/>
<path class="st21" d="M275.9,918.9h18.7c3.5,0,6.3-2.8,6.3-6.3v-24.8h-31.4v24.8C269.6,916.1,272.4,918.9,275.9,918.9z"/>
<path class="st21" d="M301.7,884.5h-32.8c-0.9,0-1.7,0.7-1.7,1.7c0,0.9,0.7,1.7,1.7,1.7h32.8c0.9,0,1.7-0.7,1.7-1.7
	C303.3,885.3,302.6,884.5,301.7,884.5z"/>
<path class="st13" d="M301,887.8h-28.6c-0.9,0-1.7-0.7-1.7-1.7c0-0.9,0.7-1.7,1.7-1.7h-3.5c-0.9,0-1.7,0.7-1.7,1.7
	c0,0.9,0.7,1.7,1.7,1.7h0.7v0.5v24.2c0,3.5,2.8,6.3,6.3,6.3h10c0.1,0,0.2,0,0.2,0c-4.4,0-8.3-3.1-9.1-7.5l-4.5-23.1H301V887.8z"/>
<path class="st22" d="M837.5,328.9c-0.8,0.6-1,1.6-0.5,2.4l7.7,13.2l-0.7-0.6c-1-1.1-2.7-1.1-3.8-0.1c-1.1,1-1.2,2.6-0.3,3.7l1.6,2
	l-0.6-0.7c-1-1.1-2.7-1.2-3.7-0.2s-1,2.6-0.1,3.6l1.5,1.6l-1.2-1.2c-0.9-0.9-2.3-1-3.2-0.1c-0.8,0.7-1,2-0.4,2.9l7.2,13
	c1.9,3.4,4.6,6.4,7.8,8.7l6.1,12.1l16.4-9.9l-7.5-10.9l-6.1-14.7c-0.6-2-1.6-3.8-2.8-5.5L840,329.3
	C839.5,328.4,838.3,328.2,837.5,328.9z"/>
<g class="st23">
	<path class="st3" d="M839.8,360.7c-0.6,0-1.1-0.2-1.6-0.6l-3.4-3.1l-0.9-1.7l5.2,3.8c0.4,0.3,0.9,0.4,1.3,0.1
		c0.2-0.2,0.4-0.4,0.4-0.7c0-0.3,0-0.6-0.2-0.8l-4-5.2l0.5-0.4l6,5c0.4,0.4,1.1,0.5,1.5,0.1c0.3-0.2,0.5-0.5,0.5-0.8
		c0.1-0.3,0-0.6-0.2-0.9l-4.2-6.4l0.6-0.4l4.7,6c0,0,0,0.1,0.1,0.1l0.5,0.6c0.4,0.6,1.3,0.8,1.9,0.3l1-0.7l-0.8,1.3c0,0,0,0-0.7,1
		c-0.5,0.1-1.1-0.1-1.6-0.3c-0.2,0.5-0.5,1-1,1.3c-1,0.7-2.3,0.5-3.2-0.3l-0.2-0.2c0.1,0.3,0.1,0.5,0,0.8c-0.1,0.6-0.4,1.2-0.9,1.6
		C840.8,360.6,840.3,360.7,839.8,360.7z"/>
</g>
<path class="st22" d="M850.7,356.2l-4.2,0.3c-3.1,0-5.4-2-5.9-4.7v-0.1c-0.1-0.8,0.7-1.1,0.9-1.1l12.7-2.2"/>
<path class="st24" d="M854.3,348.9l-12.7,2.2c-0.2,0-0.4,0.3-0.4,0.5c0.5,2.6,2.9,4.3,5.5,4.2l3.8-0.3c0,0-3.6,2.5-3,7.7"/>
<g class="st23">
	<path class="st3" d="M846.7,349.6l-2.3-4.9l0.5-0.3l3.2,4.9L846.7,349.6z"/>
</g>
<path class="st6" d="M869.5,375l-15.8,11.4l-3.1-5.7l15.3-10.3L869.5,375z"/>
<path class="st22" d="M1172,434l2.6-9.3c1.1-3.9,2.9-7.5,5.2-10.7l4.5-6.1c0.2-0.3,0.5-0.3,0.8-0.1c1.6,1.3,2.2,3.5,1.3,5.4
	l-3.5,7.6l18.9-15.8c0.8-0.6,1.9-0.6,2.5,0.1c0.6,0.7,0.7,1.7,0,2.4l-9.2,10.9l13.5-12.6c0.7-0.7,1.8-0.7,2.5,0
	c0.8,0.7,0.8,1.9,0.1,2.7l-12.1,13.7l11-9.9c0.7-0.7,1.8-0.6,2.5,0.1c0.7,0.7,0.7,1.8,0,2.6l-9.9,10.7l9.1-6.9
	c0.6-0.5,1.6-0.5,2.1,0.1c0.6,0.6,0.6,1.6,0,2.2l-11.3,12c-4,4.3-8.7,8-13.8,11l-1.1,0.6l-20.1,17.7l-13.5-15.4L1172,434z"/>
<path class="st22" d="M986.8,906.8l-51.4,1.3l20.5-14.6c3.4-2.5,5.4-6.1,5.5-10.3l0.9-16.3l27.9,0.1L986.8,906.8z"/>
<path class="st3" d="M981.1,888v-0.3c0.2-1.8-1.1-3.4-2.8-3.6l-16.7-2.4l0.2-3.2h27.7l-2.5,27.2l-22.4-2.5l7.4-2.9
	C977,898.2,980.6,893.5,981.1,888z"/>
<path class="st22" d="M1079.3,905.8h-23.1l-4.3-39.1l27.3,0.1L1079.3,905.8z"/>
<path class="st3" d="M1073.5,899.2l-0.6-12c-0.1-1.6-1.3-2.8-2.8-3.1l-16.6-2.5l-0.4-3.3l26,0.1l0.1,27.7L1073.5,899.2z"/>
<path class="st9" d="M1075.7,572.4l5.1,306h-30l-26.1-260.6c-0.2-1.7-1.6-3-3.3-3c-1.7,0-3.1,1.3-3.2,3l-27.8,260.6h-30l6.9-306
	H1075.7z"/>
<path class="st16" d="M1075.7,572.4l5.1,306h-30l-26.1-260.6c-0.2-1.7-1.6-3-3.3-3c-1.7,0-3.1,1.3-3.2,3l-27.8,260.6h-30l6.9-306
	H1075.7z"/>
<path class="st9" d="M1081.6,878.4h-32l-0.6-6.5h32.5L1081.6,878.4z"/>
<path class="st3" d="M1081.6,878.4h-13.4l-0.3-6.5h13.6L1081.6,878.4z"/>
<path class="st3" d="M972.4,874.8l29.6-246.1c0.9-7.9,7.7-13.9,15.6-13.9h3.7c-1.7,0-3.1,1.3-3.2,3L990.5,877L972.4,874.8z"/>
<path class="st9" d="M991.1,878.4h-31.9l0.5-6.5h32.1L991.1,878.4z"/>
<path class="st3" d="M991.1,878.4h-19l0.7-6.5h19L991.1,878.4z"/>
<path class="st3" d="M1075.7,572.4l5.2,299.3l-12.9,0.1l-6.2-313L1075.7,572.4z"/>
<path class="st15" d="M1001.7,359.1c-5.5-0.2-9.8-4.9-9.5-10.3c0.2-5.5,4.9-9.8,10.3-9.5c0.3,0,1.1-0.2,1,0.1
	C1001.3,348,1003.9,359.1,1001.7,359.1z"/>
<path class="st22" d="M1045.9,398.4c0,0.5-12.4,27.7-21.5,28.1c-7.9,0.4-12.9-25.2-12.8-25.7l0.6-13.3v-6.9
	c-0.4-1.6-2.3-3.1-2.3-5.2c-0.6-9.7-1.7-18.5-1.7-18.5s31.7-21.2,33.7,3.5l0.8,3.6L1045.9,398.4z"/>
<path class="st22" d="M1003.4,327.9c0,0-11.3,58.3,15.6,61.1c23.3,2.4,24.8-33.9,24.8-33.9l-1.8-23.4l-18.1-6.6L1003.4,327.9z"/>
<path class="st15" d="M1011.1,341.8c2.7-3.8,7.2-6.6,12-6.5c5.4,0.1,9.8,4.4,9.3,10.7l-0.1,1.4c-0.1,1.3,0.9,2.5,2.2,2.6
	c2.5,0.1,4.5,2.1,4.4,4.6l-0.1,4.1c0,0.5,0.4,0.9,0.9,0.9c0,0,1.2,0.2,1.4-0.8l0.6-4.4l-4.2-24.8l-20.6-5.4l-8.6,7.3L1011.1,341.8z"
	/>
<path class="st3" d="M1042.7,364.1c0,0-1.6-0.1-2.9-2.2l3.2,5.5L1042.7,364.1z"/>
<path class="st3" d="M1034.3,383.4c-2.1,2.5-5.6,5.6-11.2,6.4c-4.1,2.9-8.6,3.5-11.1,3.4l0.3-6.6l0.9,0.5c2.9,1.5,7.1,2.5,11.8,1.2
	c4.1-1.1,6.8-3.5,8.5-5.6c0.1-0.2,0.5-0.2,0.7-0.1C1034.4,382.9,1034.4,383.2,1034.3,383.4z"/>
<path class="st6" d="M1013.6,373.4l10.7-2.5c0,0,0.3,4.2-4,5.4C1015.2,377.6,1013.6,373.4,1013.6,373.4z"/>
<path class="st15" d="M1023.1,359.6c1.2,0,2.2-1,2.2-2.2s-1-2.2-2.2-2.2c-1.2,0-2.2,1-2.2,2.2S1021.9,359.6,1023.1,359.6z"/>
<path class="st6" d="M1022.1,357.2c0.2,0,0.4-0.2,0.4-0.4s-0.2-0.4-0.4-0.4c-0.2,0-0.4,0.2-0.4,0.4S1021.9,357.2,1022.1,357.2z"/>
<path class="st15" d="M1006,360.2c1.2,0,2.2-1,2.2-2.2s-1-2.2-2.2-2.2c-1.2,0-2.2,1-2.2,2.2S1004.8,360.2,1006,360.2z"/>
<path class="st6" d="M1005.1,357.7c0.2,0,0.4-0.2,0.4-0.4s-0.2-0.4-0.4-0.4c-0.2,0-0.4,0.2-0.4,0.4S1004.9,357.7,1005.1,357.7z"/>
<g class="st25">
	<path class="st20" d="M1013.8,370.1l2.8,0.1c0.3,0,0.6-0.3,0.7-0.6c0-0.3-0.3-0.6-0.6-0.7l-2.8-0.1c-0.7-0.1-1.3-0.7-1.2-1.3
		c0.1-0.7,0.7-1.3,1.3-1.2c0.3,0,0.6-0.3,0.7-0.6c0.1-0.3-0.3-0.6-0.6-0.7c-1.4,0-2.6,1-2.7,2.4
		C1011.3,368.9,1012.4,370,1013.8,370.1z"/>
</g>
<path class="st15" d="M996.7,355.8l0.1,2.4c0.1,4.6,4,8.3,8.7,8.2c4.6-0.1,8.3-4,8.2-8.7l-0.1-2.4c0-0.7-0.2-1.4-0.7-1.9l3.3-0.1
	c-0.4,0.5-0.7,1.2-0.6,1.9l0.1,2.4c0.1,4.6,4,8.3,8.7,8.2c4.6-0.1,8.3-4,8.2-8.7l-0.1-2.4c-0.1-1.7-1.5-3.1-3.2-3l-10.6,0.3h-0.1
	l-8.2,0.2h-1.3l-9.4,0.3C998,352.6,996.7,354.1,996.7,355.8z M1018.5,353.3l10.7-0.3c1,0,1.9,0.8,1.9,1.8l0.1,2.4
	c0.1,4-3.1,7.2-7,7.4c-4,0.1-7.2-3.1-7.4-7l-0.1-2.4C1016.8,354.2,1017.6,353.4,1018.5,353.3z M997.9,355.8c0-1,0.8-1.9,1.8-1.9
	l9.4-0.3h1.3c1,0,1.9,0.8,1.9,1.8l0.1,2.4c0.1,4-3.1,7.2-7,7.4c-4,0.1-7.2-3.1-7.4-7L997.9,355.8z"/>
<path class="st8" d="M916.9,915.3v-1.1c0-3.7,3-6.6,6.6-6.6h9.2c1.9,0,3.8-0.7,5.2-2.1l23.5-22.3l7.3,9.6c2.4,3.2,7.3,3.3,9.8,0.2
	c1.2-1.4,3-2.3,4.8-2.3h4.9v24.2L916.9,915.3z"/>
<path d="M916.9,915.3v3.6h71.5v-4L916.9,915.3z"/>
<path d="M966.1,889.2l-15.9,12.9c-1.8,1.4-4.3,1.3-5.9-0.3l-1.2-1.2l18.3-17.4c1-0.3,2,0.1,2.6,0.9l1.9,2.7c0.5,0.6,0.6,1.4,0.3,2.2
	L966.1,889.2z"/>
<path class="st8" d="M1059.2,888.1h-1.9c-1.8,0-3.3,1.3-3.5,3.1l-0.4,7.2c-0.1,2.2-0.7,4.4-1.7,6.4l-0.7,1.3
	c-1.3,2.5-1.9,5.3-1.9,8.1v1.3h36.6c0-3.6-1.1-7-3.1-10c-1.5-2.2-2.4-4.7-2.7-7.4l-0.8-7.2c-0.3-1.6-1.8-2.8-3.5-2.8h-1.3"/>
<path d="M1085.5,915.4H1049v3.5h36.5V915.4z"/>
<path d="M1064,884.8h5.4c2.7,0,4.9,2.4,4.5,5.1l-1.2,9.8c-0.4,3-3,5.3-6,5.3c-3.1,0-5.7-2.3-6-5.4l-1.1-9.8
	C1059.2,887.1,1061.3,884.8,1064,884.8z"/>
<path class="st26" d="M1057,891.3h19.4"/>
<path class="st26" d="M1057.6,895.9h18.2"/>
<path class="st26" d="M1058.1,900.4h17.2"/>
<path class="st26" d="M947.9,893.8l7.1,6.7"/>
<path class="st26" d="M951.7,890.3l7.3,6.9"/>
<path class="st26" d="M955.6,887l7.2,6.8"/>
<path class="st27" d="M969.1,578h93.5"/>
<path class="st15" d="M1180.6,452.8l-59.3,56.5c-5.9,5.6-15.5,4.3-19.6-2.7l-20.9-39.4l-3.4,102.7c0,1.4-1.2,2.5-2.6,2.5H967.2
	c-0.6,0-1.1-0.5-1.2-1.1l-6-126.1l-47.6,22.9c-5.9,2.9-13.1,0.6-16.3-5.2L853.3,386l16.5-11.4l41.9,51.9l45.4-23.2
	c3.6-1.8,7.5-3,11.5-3.3l43.3-4.1l12.5,23.8l20.9-23.7l37.3,9.9c7.7,2,14.1,7.3,17.6,14.4l23.5,47.5l42.4-30.3L1180.6,452.8z"/>
<path class="st28" d="M1182.9,420.6c0,0,5.2,4.3,1.5,12.8"/>
<path class="st15" d="M1049,338.9c-0.8-6.3-4.1-11-9.6-12.2c-2.5-0.5-4.9-0.3-7,0.3c-0.9,0.3-1.8-0.3-2-1.1
	c-1.1-4.2-4.8-7.3-9.3-7.3c-3.2,0-6,1.5-7.7,3.9c-0.6,0.8-1.6,0.9-2.3,0.3c0,0-6.4-5.1-14.8,0.1c-5.6,3.5-8,11.1-4.7,17.7
	c3.4,6.7,12.2,8.7,17.6,3.6c1.9-1.8,3.4-4.5,3.7-8.5c0.2-2.3,0.1-4.6-0.6-6.6h2.8c3.3-0.2,8.5-0.8,13.4-0.1
	c-0.1,0.1-0.2,0.1-0.3,0.2l8.7,2.9c0,0,2.7,23,4.1,22.8C1047.1,353.6,1049.8,344.6,1049,338.9z"/>
<path class="st22" d="M1004.5,348.1l2.7-0.6c0.2-0.1,0.5-0.4,0.4-0.7c-0.1-0.3-0.4-0.5-0.7-0.4l-2.7,0.6c-0.3,0.1-0.7,0.1-1,0.2
	c-0.7,0-2.1,0-3.5-0.5c-0.3-0.1-0.6,0.1-0.7,0.4c-0.1,0.3,0.1,0.6,0.4,0.7c1.5,0.4,3.1,0.5,3.8,0.5
	C1003.6,348.2,1004,348.1,1004.5,348.1z"/>
<path class="st6" d="M1023,420.5l-8.3-7.5l10.5-1.7l10,2.5l-9.1,6.8C1025.1,421.4,1023.8,421.3,1023,420.5z"/>
<path class="st6" d="M1025.2,411.3l16,4l7.5-18.4l-0.4-5.1c-0.1-0.7-0.7-1.2-1.4-1.2h-1.7l0.5,5.2L1025.2,411.3z"/>
<path class="st6" d="M1011.9,395.9l0.2-4.3h-1.3c-0.9,0-1.6,0.7-1.6,1.5l-0.2,20.8l16.2-2.7L1011.9,395.9z"/>
<path class="st29" d="M1038.7,415l-13.6-3.4l-14.4,2.4"/>
<path class="st6" d="M1171.2,434.6l13.1,13.4l-4.3,4.2l-13.4-14.2L1171.2,434.6z"/>
<path class="st22" d="M1041.7,352.4c0,0,0.9-4.3,5.5-3c5.2,1.5,4.3,12-2.6,14.4c-4.3,0.9-3.7-1.7-3.4-5.2
	C1041.7,352.4,1041.7,352.4,1041.7,352.4z"/>
<path class="st20" d="M1047.8,352.3c-0.9-0.5-1.8-0.6-2.5-0.3c-0.7,0.3-1.3,0.8-1.7,1.7c-0.4,0.9-0.6,2-0.4,3.1v0.9
	c0,0.3,0.3,0.5,0.6,0.4c0.3,0,0.5-0.3,0.4-0.6v-0.9c0-0.3-0.1-1.7,0.3-2.6c0.3-0.6,0.7-1,1.1-1.2c0.4-0.1,1-0.1,1.6,0.2
	c0.2,0.1,0.6,0,0.7-0.2C1048.1,352.8,1048,352.5,1047.8,352.3z"/>
<path class="st30" d="M1123.7,467.8l-4.4-8.9l-3.2,10.8c-0.4,1.4,1.1,2.5,2.3,1.7L1123.7,467.8z"/>
<path class="st30" d="M911.7,426.5l2.5,2.9c0.8,0.9,2.2,0.9,3,0l9.8-10.7L911.7,426.5z"/>
<path d="M960.1,445.2l3.4-1.6c0.5-0.3,1.1,0.3,0.8,0.8l-3.9,8.6L960.1,445.2z"/>
<path class="st7" d="M964,528.8h114.9l-1.3,41c0,1.5-1.3,2.7-2.8,2.7H967.2c-0.6,0-1.1-0.5-1.2-1.1L964,528.8z"/>
<path class="st8" d="M961.6,478.2h118.9l-1.6,50.6H964L961.6,478.2z"/>
<path class="st30" d="M1080.9,467.2l-2.3-5.3c-1.2-2.6-5-2-5.3,0.9l-10.7,109.7h12.1c1.6,0,2.9-1.3,2.9-2.8L1080.9,467.2z"/>
<path class="st7" d="M385.7,765.7l-42-175.1c-1.3-5.3,2.7-10.3,8.2-10.3h-11.4c-5.4,0-9.4,5.1-8.2,10.3l42,175.1l136.4,0.3
	L385.7,765.7z"/>
<path class="st7" d="M412.4,751.2l-32.1-142.8c-0.1-0.5-0.6-0.9-1.1-0.9h-1.9c0.5,0.1,0.8,0.4,0.9,0.8l32.1,142.8
	c0.2,0.7-0.4,1.4-1.1,1.4h-1.6c0.1,0,0.1,0,0.2,0l3.4-0.1C412,752.6,412.6,751.9,412.4,751.2z"/>
<path class="st12" d="M475.5,586.6c-0.9-3.7-4.3-6.4-8.1-6.4H351.9c-5.4,0-9.4,5.1-8.2,10.3l42,175.1l134,0.3L475.5,586.6z
	 M411.3,752.6l-3.4,0.1c-0.5,0-1-0.4-1.1-0.9l-32.1-142.9c-0.2-0.7,0.4-1.3,1.1-1.3h3.5c0.5,0,1,0.4,1.1,0.9l32.1,142.8
	C412.6,751.9,412,752.6,411.3,752.6z"/>
<path class="st15" d="M475.8,583.8c1.2,0.8,2.9,0.9,4.7,0.6c7.4-1.2,13-2.2,13.6-9.7c0.8-11.8-1.7-37.9-11.1-52.8
	c-6.4,3.3-7.4,4.8-7.4,4.8s-9.5-2.9-9.7-3C465.9,523.6,462.8,575.3,475.8,583.8z"/>
<path class="st15" d="M452.5,576.2l-5.3-62.9c-3.2-0.5-8.3,3.7-9.8,5.4c-12,13.7-14.9,42-13.2,60.9c0.6,7.3,5.3,8.3,12.5,9.7
	c7.2,1.4,15.6,2.1,18.7-1.5C456.9,585.9,452.5,576.2,452.5,576.2z"/>
<path class="st12" d="M633.3,706.9c-1.2-8.1-8-13.9-16-14h-8.7l-3.4,0.8v0.5l-74,9.4c-9.3,1.2-16.9,7.8-19.3,17l-51.6,198.3h12.4
	l50.8-195.3c1.1-4.3,4.7-7.5,9.2-8.1l83.7-10.7c2.4-0.3,4.6,1.3,5,3.7l32,210.2h12.2L633.3,706.9z"/>
<path class="st7" d="M464.9,918.9h-12.4L504,720.6c2.4-9.1,9.9-15.8,19.3-17l83.7-10.7c8.9-1.1,17,5,18.4,13.9l32.3,212.1h-12.2
	l-32-210.2c-0.4-2.4-2.5-4-5-3.7l-83.7,10.7c-4.4,0.6-8,3.7-9.2,8.1L464.9,918.9z"/>
<path class="st12" d="M666,777.8H484.7c-3.3,0-6-2.7-6-6c0-3.3,2.7-6,6-6H666c3.3,0,6,2.7,6,6C672.1,775.1,669.4,777.8,666,777.8z"
	/>
<path class="st7" d="M522.5,777.8H367.7c-3.3,0-6-2.7-6-6c0-3.3,2.7-6,6-6h154.7c3.3,0,6,2.7,6,6
	C528.5,775.1,525.8,777.8,522.5,777.8z"/>
<path class="st7" d="M545.8,769.7c0.8,2.5,0.1,4.8-1.4,6.3c-1.1,1.1-2.6,1.8-4.3,1.8H367.7c-0.8,0-1.5-0.1-2.2-0.4l3-11.7H540
	C542.6,765.7,545,767.3,545.8,769.7z"/>
<path class="st31" d="M724.1,918.9h36.6c0.6-1.1,2.3-4.4,0.2-5.1L736,903.1c-4.4-1.5-7.4-2.5-10-5.8c-0.5-0.7-1-1.5-1.3-2.3
	l-19.4-44l-23.9,11.5l20.3,35.2c1.8,2.6,2.2,6,2.3,9.1l0.1,5c0.2,3.8,3.2,6.8,6.9,6.9h0.1L724.1,918.9z"/>
<path class="st3" d="M761.4,917.3c-0.3,0.7-0.6,1.3-0.8,1.7H724l-13.1-0.2h-0.1c-3.8-0.1-6.8-3.2-6.9-6.9l-0.1-5
	c-0.1-3.1-0.6-6.6-2.3-9.1l-7.3-12.6l0.4-3.5l9.4,8.7l8.7,16.3c0,0,6.7,9.1,26.7,9.9c20,0.7,20,0.7,20,0.7H761.4z"/>
<path class="st8" d="M719.8,883.8l-21.3,8.8l-13.5-22c-32.7-48.5-40.6-64.1-53.6-104.6H514.7c-16.3,0-29.5-13.1-29.8-29.3l-0.3-18.6
	h151.6c9.6,0,18.3,5.8,22,14.7L719.8,883.8z"/>
<path class="st32" d="M682.9,851.3c-25.8-44.4-32.5-80.8-44.7-117.5c-0.8-2.5-4.7-15.8-19.6-15.8H556c-15.4-0.4-24,23.3-36.8,14.8
	L487.8,718h-3.1l0.3,18.6c0.3,16.3,13.5,29.3,29.8,29.3h116.7c14,41.8,21,56.4,53.6,104.6l13.5,21.9l5.5-2.3
	C704,890.3,687.6,859.3,682.9,851.3z"/>
<path class="st9" d="M733.1,902.1l-6.5,1c-8.1,1.3-16.5,0.1-24-3.2l1.4,14.8c0.3,2.4,2.3,4.2,4.8,4.2h53.5c2.6,0,3.2-3.6,0.7-4.4
	L733.1,902.1z"/>
<path class="st32" d="M764.2,917.9l-44.9-2.7c-3.5-0.2-6.4-4.9-7.5-8.3l-1.3-4.3c-2.7-0.6-5.4-1.5-7.9-2.6l1.4,14.8
	c0.3,2.4,2.3,4.2,4.8,4.2h53.5C763.2,918.9,763.9,918.5,764.2,917.9z"/>
<path class="st31" d="M677.2,918.9h36.6c0.6-1.1,2.3-4.4,0.2-5.1l-24.9-10.7c-4.4-1.5-7.4-2.5-10-5.8c-0.5-0.7-1-1.5-1.3-2.3
	l-19.4-44l-23.9,11.5l20.3,35.2c1.8,2.6,2.2,6,2.3,9.1l0.1,5c0.2,3.8,3.2,6.8,6.9,6.9h0.1L677.2,918.9z"/>
<path class="st3" d="M714.5,917.3c-0.3,0.7-0.6,1.3-0.8,1.7h-36.6l-13.1-0.2h-0.1c-3.8-0.1-6.8-3.2-6.9-6.9l-0.1-5
	c-0.1-3.1-0.6-6.6-2.3-9.1l-7.3-12.6l0.4-3.5l11.1,8l7,17c0,0,6.7,9.1,26.7,9.9c20,0.7,20,0.7,20,0.7H714.5z"/>
<path class="st31" d="M641.5,527l10.7-3.8c1.1-0.3,2-0.8,2.9-1.5l10.4-7.5c0.2-0.2,0.3-0.5,0.1-0.8c-1.5-1.7-4-2.3-6-1.3l-4.1,1.8
	c-1,0.4-2.1,0.4-3.1-0.2c-1-0.6-1.7-1.7-1.7-2.8l-0.6-12.4c0-0.5,0.1-1.1,0.4-1.6l6.5-10.7c0.6-1,0.2-2.3-0.8-2.8
	c-0.8-0.4-1.7-0.2-2.3,0.4c-2.8,2.9-10.5,11-10.5,11l-1,9.9l7.7-16.9l-8,6.1c-3,2.3-5.2,5.4-6.5,8.9l-5.3,15.1l-27.8,24.6
	l-10.9,38.4L641.5,527z"/>
<path class="st3" d="M643.5,495.3v-0.1l4.2-5.7l2.1-1.6l-5.5,7.8l-2,5.7l-0.8-0.3L643.5,495.3z"/>
<path class="st3" d="M642.6,500.7l1.7-5l5.5-7.8l-8,6.1c-3,2.3-5.2,5.4-6.5,8.9C635.4,503,637.9,500.6,642.6,500.7z"/>
<path class="st3" d="M642.2,493.8l-2.9,4.2l-1.1,4.3h-0.8l1.1-5.1c0,0,1.2-1.5,2.1-2.2L642.2,493.8z"/>
<path class="st9" d="M499,581.9l71.7-10.6l51-45.9l2.7,44.5l-43.8,23.9c-1.2,0.7-2.5,1.2-3.8,1.5l-72.6,18.6"/>
<path class="st31" d="M510.8,580.3l-41.1,45.2l-48.9-29.4l23.2-7c0.2-0.1,0.4-0.1,0.6-0.2c2.5-1.1,3.9-3.9,3.5-6.6l-2.6-23.6
	l24.3-11.5l5.6,24l0.9,3.9l1.3,5.4c0.7,2.9,3.5,4.1,6.2,3.8L510.8,580.3z"/>
<path class="st8" d="M672.9,883.8l-21.3,8.8l-13.5-21.9c-32.7-48.5-40.6-64.1-53.6-104.6H467.8c-16.3,0-29.5-13.1-29.8-29.3
	l-0.3-18.6h151.6c9.6,0,18.3,5.8,22,14.7L672.9,883.8z"/>
<path class="st32" d="M638.1,851c-25.8-44.4-26.8-56.2-38.4-93.1c-3.2-10.2-10.5-12.4-15.7-12.4l-66,0.3
	c-15.4-0.4-42.1,1.2-54.8-7.4L441,718.1h-3.1l0.3,18.6C438.5,753,451.7,766,468,766h116.7c14,41.8,21,56.4,53.6,104.6l13.5,21.9
	l7.2-3C658.9,889.6,642.7,859,638.1,851z"/>
<path class="st9" d="M408.6,600.1l27.3-8.8l5.9,4.4c15.8,11.9,38.4,6.7,47.4-10.9l0.8-1.6l42.9-6.4v19.3v8.4l-28.6,9.4l-2.6-4.7
	l8.2,14c4.4,7.4,4.8,16.5,1.2,24.3l-2.5,5.4c-0.6,1.3-0.9,2.6-0.8,4l0.8,17c0.4,8.8,3.3,17.3,8.3,24.6l13.3,19.5h-5
	c-18.6,0-36.9,5.1-52.9,14.8l-24.8,15c-8,4.9-17.9-2.3-15.8-11.5l1-4.3c3.8-16.1,4.2-32.8,1.4-49l-9.8-46.1l-28.6,1l-1.8-6.6
	C389.9,618.4,395.6,604.3,408.6,600.1z"/>
<path class="st9" d="M474.9,713.7l0.4-0.4c-1-1-1-2.7,0-3.7l-0.4-0.4c-1,1-2.7,1-3.7,0l-0.4,0.4c1,1,1,2.7,0,3.7l0.4,0.4
	C472.2,712.6,473.9,712.6,474.9,713.7z"/>
<path class="st20" d="M426.1,630.9c0.8-0.2,1.7,0.4,1.8,1.2l7,27.2c0.9,3.9,3.5,9,7,11.1c8.1,4.9,17.4,0.9,17.4,0.9
	c1.3-0.5,2.6,0.6,2.3,1.9l-2.7,11.4c-8.1,22.4-5.8,47.4,4.3,53.8l-15.5,9.4c-8,4.9-17.9-2.3-15.8-11.5l1-4.3
	c3.8-16.1,4.2-32.8,1.4-49l-9.4-50.2C424.6,631.9,425.2,631.1,426.1,630.9z"/>
<path class="st9" d="M516.7,713.7l0.4-0.4c-1-1-1-2.7,0-3.7l-0.4-0.4c-1,1-2.7,1-3.7,0l-0.4,0.4c1,1,1,2.7,0,3.7l0.4,0.4
	C514,712.6,515.6,712.6,516.7,713.7z"/>
<path class="st20" d="M508.5,652.9c-2.6,4.4-7.3,7.1-12.4,7l11.9,2.5l-0.3-5.5C507.7,656.9,507.6,654.6,508.5,652.9z"/>
<path class="st20" d="M623.7,557.7L576.9,588l-75.1,17.6c-1.3,0.4-1.8,2-1,3.1l3.5,5.3l73.3-18.8c0.9-0.2,1.8-0.6,2.6-1l44.4-24.2
	L623.7,557.7z"/>
<path class="st31" d="M548,710.2l-10.7-9.5c-1.4-1.2-2.2-1.5-4-1.7l-17.3,1.5l-28.6-2l-10,13.4l24.9,1.6l2.4,0.9
	c4,1.6,8.5,1.5,12.4-0.4h0.1l3.3-1.6c0.8-0.4,1.8-0.4,2.6-0.1l8.5,3.5c0.4,0.2,0.9,0.1,1.3-0.2c0.7-0.5,0.7-1.7,0-2.2l-6.3-4.7
	l9.4,6.8c0.4,0.3,1,0.4,1.5,0.2c1-0.4,1.3-1.7,0.5-2.5l-6.7-6.6l8.8,8.6c0.5,0.4,1.1,0.6,1.7,0.3c1.1-0.4,1.4-1.8,0.7-2.6l-6.6-7.8
	l10.1,7.4c0.7,0.6,1.8,0.4,2.3-0.3C548.7,711.9,548.7,710.8,548,710.2z"/>
<path class="st3" d="M532.8,713.9c-0.1,0-0.1,0-0.2-0.1l-5.8-4.3c-0.1-0.1-0.2-0.3-0.1-0.4c0.1-0.1,0.3-0.2,0.4-0.1l5.8,4.3
	c0.1,0.1,0.2,0.3,0.1,0.4C532.9,713.8,532.8,713.9,532.8,713.9z"/>
<path class="st3" d="M537.7,713.7c-0.1,0-0.2,0-0.2-0.1l-6.3-6.2c-0.1-0.1-0.1-0.3,0-0.4c0.1-0.1,0.3-0.1,0.4,0l6.3,6.2
	c0.1,0.1,0.1,0.3,0,0.4C537.9,713.7,537.8,713.7,537.7,713.7z"/>
<path class="st3" d="M524.8,711.4c1.9,1,5.2,2.6,6.3,3.3c1.6,0.9,2.1-0.3,2.1-0.3c0.1,0.5-0.1,1.1-0.5,1.4c-0.4,0.3-0.9,0.3-1.3,0.2
	l-8.5-3.5c-0.8-0.3-1.8-0.3-2.6,0.1l1.7-1C522.9,711,523.9,711,524.8,711.4z"/>
<path class="st9" d="M394.8,634.6l18.8,68.4c1.3,4.5,4.9,8.1,9.5,9.3l50,13.4l22.3-27.2l-57.3-8.4l-13.8-58.2L394.8,634.6z"/>
<path class="st20" d="M453.7,692.4l0.2-0.9l58.6,8.5l-0.1,0.4L453.7,692.4z"/>
<path class="st3" d="M486.5,709.3l16.7,1.9c1.3,0.1,2.6,0.6,3.7,1.3c1.6,1,4.6,2.4,8.5,2.3c0,0-5.7,2.5-13.1-1.2l-19.1-1.1
	L486.5,709.3z"/>
<path class="st9" d="M686.2,902.1l-6.5,1c-8.1,1.3-16.5,0.1-24-3.2l1.4,14.8c0.3,2.4,2.3,4.2,4.8,4.2h53.5c2.6,0,3.2-3.6,0.7-4.4
	L686.2,902.1z"/>
<path class="st32" d="M717.4,917.9l-44.9-2.7c-3.5-0.2-6.4-4.9-7.5-8.3l-1.3-4.3c-2.7-0.6-5.4-1.5-7.9-2.6l1.4,14.8
	c0.3,2.4,2.3,4.2,4.8,4.2h53.5C716.4,918.9,717,918.5,717.4,917.9z"/>
<path class="st0" d="M616,539.5c0.8,0,1.4-0.6,1.4-1.4s-0.6-1.4-1.4-1.4s-1.4,0.6-1.4,1.4S615.2,539.5,616,539.5z"/>
<path class="st0" d="M602.1,573.7c0.8,0,1.4-0.6,1.4-1.4c0-0.8-0.6-1.4-1.4-1.4c-0.8,0-1.4,0.6-1.4,1.4
	C600.7,573,601.3,573.7,602.1,573.7z"/>
<path class="st0" d="M564,583.1c0.8,0,1.4-0.6,1.4-1.4s-0.6-1.4-1.4-1.4s-1.4,0.6-1.4,1.4S563.2,583.1,564,583.1z"/>
<path class="st0" d="M531.4,604.2c0.8,0,1.4-0.6,1.4-1.4c0-0.8-0.6-1.4-1.4-1.4c-0.8,0-1.4,0.6-1.4,1.4
	C530,603.5,530.6,604.2,531.4,604.2z"/>
<path class="st0" d="M490.8,615.1c0.8,0,1.4-0.6,1.4-1.4s-0.6-1.4-1.4-1.4c-0.8,0-1.4,0.6-1.4,1.4S490,615.1,490.8,615.1z"/>
<path class="st0" d="M503.7,649.9c0.8,0,1.4-0.6,1.4-1.4c0-0.8-0.6-1.4-1.4-1.4c-0.8,0-1.4,0.6-1.4,1.4
	C502.3,649.2,502.9,649.9,503.7,649.9z"/>
<path class="st0" d="M464.5,640c0.8,0,1.4-0.6,1.4-1.4s-0.6-1.4-1.4-1.4s-1.4,0.6-1.4,1.4S463.7,640,464.5,640z"/>
<path class="st0" d="M470.6,699.9c0.8,0,1.4-0.6,1.4-1.4c0-0.8-0.6-1.4-1.4-1.4c-0.8,0-1.4,0.6-1.4,1.4
	C469.2,699.2,469.8,699.9,470.6,699.9z"/>
<path class="st0" d="M493.7,719.4c0.8,0,1.4-0.6,1.4-1.4c0-0.8-0.6-1.4-1.4-1.4c-0.8,0-1.4,0.6-1.4,1.4
	C492.3,718.7,492.9,719.4,493.7,719.4z"/>
<path class="st0" d="M497.5,680.2c0.8,0,1.4-0.6,1.4-1.4c0-0.8-0.6-1.4-1.4-1.4s-1.4,0.6-1.4,1.4
	C496.1,679.5,496.7,680.2,497.5,680.2z"/>
<path class="st0" d="M461.6,673.8c0.8,0,1.4-0.6,1.4-1.4s-0.6-1.4-1.4-1.4c-0.8,0-1.4,0.6-1.4,1.4S460.8,673.8,461.6,673.8z"/>
<path class="st0" d="M402.6,608.4c0.8,0,1.4-0.6,1.4-1.4c0-0.8-0.6-1.4-1.4-1.4c-0.8,0-1.4,0.6-1.4,1.4
	C401.2,607.7,401.8,608.4,402.6,608.4z"/>
<path class="st0" d="M447.4,607c0.8,0,1.4-0.6,1.4-1.4s-0.6-1.4-1.4-1.4c-0.8,0-1.4,0.6-1.4,1.4S446.6,607,447.4,607z"/>
<path class="st0" d="M409.1,664.5c0.8,0,1.4-0.6,1.4-1.4s-0.6-1.4-1.4-1.4c-0.8,0-1.4,0.6-1.4,1.4S408.3,664.5,409.1,664.5z"/>
<path class="st0" d="M424.5,634.2c0.8,0,1.4-0.6,1.4-1.4c0-0.8-0.6-1.4-1.4-1.4s-1.4,0.6-1.4,1.4
	C423.1,633.5,423.7,634.2,424.5,634.2z"/>
<path class="st0" d="M435.3,688.7c0.8,0,1.4-0.6,1.4-1.4c0-0.8-0.6-1.4-1.4-1.4c-0.8,0-1.4,0.6-1.4,1.4
	C433.9,688,434.5,688.7,435.3,688.7z"/>
<path class="st0" d="M439.7,740.5c0.8,0,1.4-0.6,1.4-1.4s-0.6-1.4-1.4-1.4c-0.8,0-1.4,0.6-1.4,1.4S438.9,740.5,439.7,740.5z"/>
<path class="st0" d="M455.1,713.8c0.8,0,1.4-0.6,1.4-1.4s-0.6-1.4-1.4-1.4c-0.8,0-1.4,0.6-1.4,1.4S454.3,713.8,455.1,713.8z"/>
<path class="st0" d="M510.8,584.5c0.8,0,1.4-0.6,1.4-1.4s-0.6-1.4-1.4-1.4c-0.8,0-1.4,0.6-1.4,1.4S510,584.5,510.8,584.5z"/>
<path class="st20" d="M399.2,622.1l18.3,67.7c2.2,7.7,8.6,12.3,17,13.7l52.1,5.8l-13.5,16.4l-49.8-13.3c-4.7-1.3-8.4-4.9-9.7-9.6
	L394,631.2c-3.6-13.9,1.7-27,14.7-31.2C399.9,603.7,396.9,613,399.2,622.1z"/>
<path class="st7" d="M388.5,769l10.2-39.1h1.4l-10,39.1H388.5z"/>
<path class="st20" d="M508,765.7l1.8,12.1h-6l-1.7-12.1H508z"/>
<path class="st20" d="M363.5,767.5c1.1-1.1,2.6-1.8,4.3-1.8h0.8l-3,11.7"/>
<path class="st15" d="M503,714.6h61.4c0.5,0,0.9,0.4,0.9,0.9v1.6c0,0.5-0.4,0.9-0.9,0.9H503c-0.5,0-0.9-0.4-0.9-0.9v-1.6
	C502.1,715,502.4,714.6,503,714.6z"/>
<path class="st33" d="M503,714.6h61.4c0.5,0,0.9,0.4,0.9,0.9v1.6c0,0.5-0.4,0.9-0.9,0.9H503c-0.5,0-0.9-0.4-0.9-0.9v-1.6
	C502.1,715,502.4,714.6,503,714.6z"/>
<path class="st15" d="M544.4,714.6h107.1c0.5,0,0.9,0.4,0.9,0.9v1.6c0,0.5-0.4,0.9-0.9,0.9H544.4c-0.5,0-0.9-0.4-0.9-0.9v-1.6
	C543.5,715,543.9,714.6,544.4,714.6z"/>
<g class="st34">
	<path class="st33" d="M650.1,715.2h-109c-0.2,0-0.3-0.1-0.3-0.3s0.1-0.3,0.3-0.3h109c0.2,0,0.3,0.1,0.3,0.3
		S650.2,715.2,650.1,715.2z"/>
</g>
<path class="st15" d="M544.2,714.6h16.1c1.2,0,2.3-0.9,2.6-2.1l13.5-71.1c0.3-1.6-0.9-3.1-2.6-3.1h-16.1c-1.2,0-2.3,0.9-2.6,2.1
	l-13.5,71.1C541.4,713.2,542.5,714.6,544.2,714.6z"/>
<path class="st33" d="M544.2,714.6h16.1c1.2,0,2.3-0.9,2.6-2.1l13.5-71.1c0.3-1.6-0.9-3.1-2.6-3.1h-16.1c-1.2,0-2.3,0.9-2.6,2.1
	l-13.5,71.1C541.4,713.2,542.5,714.6,544.2,714.6z"/>
<path class="st15" d="M546.5,714.6h103.6c1.2,0,2.3-0.9,2.6-2.1l13.5-71.1c0.3-1.6-0.9-3.1-2.6-3.1H560c-1.2,0-2.3,0.9-2.6,2.1
	L544,711.5C543.7,713.2,544.8,714.6,546.5,714.6z"/>
<path class="st33" d="M605.6,674.5c-0.6,1.4,0.1,2.7,1.5,2.7c0.1,0,0.2,0,0.2,0c-1.7,1.9-4.2,3.2-6.5,3.1c-3.1-0.1-4.5-2.6-3.1-5.6
	c1.3-3.1,4.9-5.4,8-5.4c1.9,0.1,3.2,1.1,3.6,2.6C607.9,672,606.3,673,605.6,674.5z"/>
<path class="st12" d="M510.1,706.9c-1.2-8.1-8-13.9-16-14h-8.7l-3.4,0.8v0.5l-74,9.4c-9.3,1.2-16.9,7.8-19.3,17l-51.6,198.3h12.4
	l50.8-195.3c1.1-4.3,4.7-7.5,9.2-8.1l83.7-10.7c2.4-0.3,4.6,1.3,5,3.7l32,210.2h12.2L510.1,706.9z"/>
<path class="st7" d="M341.6,918.9h-12.4l51.6-198.3c2.4-9.1,9.9-15.8,19.3-17l83.7-10.7c8.9-1.1,17,5,18.4,13.9l32.3,212.1h-12.2
	l-32-210.2c-0.4-2.4-2.5-4-5-3.7l-83.7,10.7c-4.4,0.6-8,3.7-9.2,8.1L341.6,918.9z"/>
<path class="st31" d="M470.6,574.6l-1.4,0.3c-10.4,2.2-21.1-5.1-23.3-15.5l-5.7-26.3c-0.7-3.5,1.5-6.9,4.9-7.6l24.6-5.3
	c4.5-1,8.9,1.9,9.9,6.4l5.3,24.5C487.1,561.4,481.5,572.6,470.6,574.6z"/>
<path class="st6" d="M467.9,560.8l0.9,0.9c2.4,2.3,6.4,1.3,7.6-1.8l0.5-1.4c0.1-0.3-0.1-0.6-0.4-0.5l-8.4,2.2
	C467.8,560.2,467.7,560.6,467.9,560.8z"/>
<path class="st15" d="M463,549.9c1.2,0,2.1-0.9,2.1-2.1c0-1.2-0.9-2.1-2.1-2.1s-2.1,0.9-2.1,2.1C460.9,548.9,461.8,549.9,463,549.9z
	"/>
<path class="st6" d="M464,548.9c0.2,0,0.4-0.2,0.4-0.4c0-0.2-0.2-0.4-0.4-0.4s-0.4,0.2-0.4,0.4C463.6,548.7,463.8,548.9,464,548.9z"
	/>
<path class="st15" d="M478.9,547.4c1.2,0,2.1-0.9,2.1-2.1c0-1.2-0.9-2.1-2.1-2.1s-2.1,0.9-2.1,2.1
	C476.8,546.4,477.7,547.4,478.9,547.4z"/>
<path class="st6" d="M480,546.3c0.2,0,0.4-0.2,0.4-0.4s-0.2-0.4-0.4-0.4s-0.4,0.2-0.4,0.4S479.8,546.3,480,546.3z"/>
<g class="st25">
	<path class="st20" d="M473.7,555.6l-2.7,0.7c-0.3,0.1-0.7-0.1-0.7-0.4c-0.1-0.3,0.1-0.7,0.4-0.7l2.7-0.7c0.7-0.2,1.1-0.9,0.9-1.5
		c-0.2-0.7-0.9-1.1-1.5-0.9c-0.3,0.1-0.7-0.1-0.7-0.4c-0.1-0.3,0.1-0.7,0.4-0.7c1.3-0.3,2.7,0.5,3,1.8
		C475.8,554,475,555.3,473.7,555.6z"/>
</g>
<path class="st15" d="M486.8,532.3h1.1c-8.4-27.9-38.5-27.7-50.6-13.5c-7.3,8.6-10.4,22.6-10.4,22.6c2.4,5.2,9,9.3,11.1,12.9
	c0.9,1.6,2.8-5.9,4.1-6.9c0.2-0.1,1.8,1.5,2.9,2.6c0.7,0.7,1.9,0.4,2-0.6c0.5-3.5,0.3-7.1-0.4-10.5l-0.7-3.1
	c6.7-2.2,26.9-10.1,31.4-11.6c1.1-0.4,2.1,1.3,2.4,2.4l3.3,15.3l2.8-7.3L486.8,532.3z"/>
<path class="st31" d="M447.4,560.2c0,0-8.7,3-12.8-5.3c-4.2-8.3,6.3-12.7,10.2-4.3l3.7,9.3L447.4,560.2z"/>
<path class="st20" d="M436.1,549.5c0.8-0.9,1.6-1.4,2.5-1.4s1.8,0.3,2.6,1.2c0.8,0.8,1.5,1.9,1.9,3.2l0.3,0.9
	c0.2,0.7-0.9,1.2-1.2,0.4c-0.3-1-0.3-1-0.3-1c-0.1-0.3-0.7-1.9-1.5-2.6c-0.6-0.6-1.2-0.8-1.7-0.8s-1.1,0.4-1.7,1
	c-0.2,0.2-0.6,0.3-0.8,0.1C435.9,550.2,435.9,549.8,436.1,549.5z"/>
<path class="st6" d="M479.1,536.6c-2.5,0.6-4.5,2.4-5.5,4.6c-2.4-0.4-4.3,0.4-5.1,0.9c-2-2.3-5.2-3.4-8.3-2.7
	c-4.5,1.1-7.2,5.7-6.1,10.1c1.1,4.5,5.7,7.2,10.1,6.1c4.5-1.1,7.2-5.7,6.1-10.1c-0.2-0.9-0.6-1.8-1.1-2.5c0.7-0.4,2.2-1,4.1-0.8
	c-0.4,1.4-0.5,3-0.1,4.5c1.1,4.5,5.7,7.2,10.1,6.1c4.5-1.1,7.2-5.7,6.1-10.1C488.1,538.2,483.6,535.5,479.1,536.6z M463.9,554.6
	c-3.9,1-7.9-1.4-8.8-5.3c-1-3.9,1.4-7.9,5.3-8.8c3.9-1,7.9,1.4,8.8,5.3C470.2,549.6,467.8,553.6,463.9,554.6z M482.9,551.7
	c-3.9,1-7.9-1.4-8.8-5.3c-1-3.9,1.4-7.9,5.3-8.8c3.9-1,7.9,1.4,8.8,5.3C489.2,546.8,486.8,550.7,482.9,551.7z"/>
<path class="st9" d="M444.3,559.5c1,0,1.8-0.8,1.8-1.8c0-1-0.8-1.8-1.8-1.8c-1,0-1.8,0.8-1.8,1.8
	C442.5,558.7,443.3,559.5,444.3,559.5z"/>
<path class="st3" d="M445.2,559c-1.1,0.3-2.1-0.4-2.4-1.4c-0.1-0.4-0.1-0.8,0-1.1c-0.4,0.4-0.5,1-0.4,1.6c0.2,1,1.2,1.6,2.2,1.3
	c0.4-0.1,0.7-0.3,0.9-0.6C445.5,559,445.4,559,445.2,559z"/>
<path class="st3" d="M445.6,560.6l3.1-0.7l-2.4,7.7L445.6,560.6z"/>
<path class="st15" d="M479.6,526.5c-16.9-4-14.1,21.3-31.6,17.9c-16.4-3.2-1.6-23-1.6-23l14.5-2.6l19.5,2.4L479.6,526.5z"/>
<path class="st35" d="M450.1,545.5c0,0-2,0.1-5-1.4"/>
<path class="st3" d="M476.2,574.5l-0.4-1.7h-0.1c0,0-4.9,2-10.4,1.2c-0.3,0-0.6,0.2-0.7,0.5c0,0.3,0.2,0.6,0.5,0.7
	c1,0.1,1.9,0.2,2.8,0.2c0.8,0,1.5,0,2.2-0.1c0.9,0.7,3.1,2.1,6.6,1.3L476.2,574.5z"/>
<path class="st15" d="M445.6,560.6c0,0,3,16.7,11.8,28c0,0-11.8,2.8-20.9,0.7C428.1,587.4,445.6,560.6,445.6,560.6z"/>
<path class="st36" d="M468.5,245.3v250.2l-238.1-4.3l-0.2-159.7l93.9-86.2H468.5z"/>
<path class="st16" d="M397.7,250.7L304,490h-29.5l95.4-239.3H397.7z"/>
<path class="st16" d="M356.5,250.7L262.7,490h-9.8l95.4-239.3H356.5z"/>
<path class="st6" d="M215.6,500.9H474v-261H330l-11.7,10.9v239.3H215.4L215.6,500.9z M463.1,490H329.2V250.7h133.9V490z"/>
<path class="st6" d="M310.6,257.7h152.5v-4H315L310.6,257.7z"/>
<path class="st6" d="M303,264.6h160.1v-4H307.4L303,264.6z"/>
<path class="st6" d="M295.4,271.6h167.7v-4H299.8L295.4,271.6z"/>
<path class="st6" d="M287.8,278.6h175.3v-4H292.2L287.8,278.6z"/>
<path class="st6" d="M280.3,285.6h182.8v-4H284.6L280.3,285.6z"/>
<path class="st6" d="M272.6,292.5h190.5v-4H277L272.6,292.5z"/>
<path class="st6" d="M457.9,361.9h0.2V250.7h1v111.2h0.2c0.8,0,1.4,0.6,1.4,1.4v15.5c0,0.8-0.6,1.4-1.4,1.4H458
	c-0.8,0-1.4-0.6-1.4-1.4v-15.5C456.5,362.5,457.1,361.9,457.9,361.9z"/>
<path class="st4" d="M460.9,257.6h2.1v-4h-2.1V257.6z"/>
<path class="st4" d="M460.9,264.6h2.1v-4h-2.1V264.6z"/>
<path class="st4" d="M460.9,271.6h2.1v-4h-2.1V271.6z"/>
<path class="st4" d="M460.9,278.5h2.1v-4h-2.1V278.5z"/>
<path class="st4" d="M460.9,285.5h2.1v-4h-2.1V285.5z"/>
<path class="st4" d="M460.9,292.5h2.1v-4h-2.1V292.5z"/>
<path class="st4" d="M318.3,259.3h10.9v-1.7h-10.9V259.3z"/>
<path class="st4" d="M318.3,266.3h10.9v-1.7h-10.9V266.3z"/>
<path class="st4" d="M318.3,273.3h10.9v-1.7h-10.9V273.3z"/>
<path class="st4" d="M318.3,280.2h10.9v-1.7h-10.9V280.2z"/>
<path class="st4" d="M318.3,287.2h10.9v-1.7h-10.9V287.2z"/>
<path class="st4" d="M318.3,294.2h10.9v-1.7h-10.9V294.2z"/>
</svg>
