<?xml version="1.0" encoding="utf-8"?>
<!-- Generator: Adobe Illustrator 26.3.1, SVG Export Plug-In . SVG Version: 6.00 Build 0)  -->
<svg version="1.1" id="Layer_1" xmlns="http://www.w3.org/2000/svg" xmlns:xlink="http://www.w3.org/1999/xlink" x="0px" y="0px"
	 viewBox="0 0 170 55" style="enable-background:new 0 0 170 55;" xml:space="preserve">
<style type="text/css">
	.st0{fill:#FFFFFF;}
</style>
<g>
	<g>
		<path class="st0" d="M5.3,27.5c0,6.9,5.6,12.4,12.5,12.4c3.3,0,6.5-1.3,8.8-3.6l2.9-2.6L26,30.6l-2.6,2.3
			c-1.6,1.6-3.6,2.4-5.6,2.4c-4.3,0-7.8-3.5-7.8-7.8s3.5-7.8,7.8-7.8c2.1,0,4.1,0.8,5.5,2.3l6.2,5.5l0,0l3.5,3.1l0,0l6.5,5.8
			c2.3,2.2,5.4,3.5,8.7,3.5c6.9,0,12.5-5.6,12.5-12.4s-5.6-12.4-12.5-12.4c-3.3,0-6.5,1.3-8.8,3.6l-2.9,2.6l3.5,3.1l2.6-2.3
			c1.6-1.6,3.6-2.4,5.6-2.4c4.3,0,7.8,3.5,7.8,7.8s-3.5,7.8-7.8,7.8c-2.1,0-4.1-0.8-5.5-2.3l-6.2-5.5l0,0L33,24.4l0,0l-6.5-5.8
			c-2.3-2.3-5.4-3.6-8.7-3.6C10.9,15.1,5.3,20.6,5.3,27.5z"/>
	</g>
</g>
<rect x="5.3" y="27.5" class="st0" width="4.6" height="17.5"/>
<rect x="56.3" y="10" class="st0" width="4.6" height="17.5"/>
<g>
	<path class="st0" d="M69.5,34.5V17.4h5.6c2.1,0,3.5,0.1,4.1,0.3c1,0.3,1.8,0.8,2.5,1.7s1,2,1,3.3c0,1.1-0.2,1.9-0.6,2.7
		s-0.9,1.3-1.5,1.7s-1.2,0.7-1.8,0.8c-0.8,0.2-2,0.2-3.6,0.2H73v6.5L69.5,34.5L69.5,34.5z M73,20.3v4.9h1.9c1.4,0,2.3-0.1,2.7-0.3
		s0.8-0.5,1.1-0.8s0.4-0.8,0.4-1.3c0-0.6-0.2-1.1-0.6-1.5s-0.8-0.7-1.4-0.8c-0.4-0.1-1.2-0.1-2.5-0.1H73V20.3z"/>
	<path class="st0" d="M92.7,30.6l3.3,0.6c-0.4,1.2-1.1,2.1-2,2.7s-2,0.9-3.4,0.9c-2.2,0-3.8-0.7-4.8-2.1c-0.8-1.1-1.2-2.6-1.2-4.3
		c0-2.1,0.5-3.7,1.6-4.8s2.4-1.8,4.1-1.8c1.9,0,3.3,0.6,4.4,1.8s1.6,3.1,1.5,5.6H88c0,1,0.3,1.7,0.8,2.3c0.5,0.6,1.1,0.8,1.9,0.8
		c0.5,0,0.9-0.1,1.3-0.4S92.5,31.2,92.7,30.6z M92.9,27.3c0-1-0.3-1.7-0.7-2.2s-1-0.7-1.7-0.7s-1.3,0.3-1.8,0.8S88,26.4,88,27.3
		H92.9z"/>
	<path class="st0" d="M97.3,22.1h3.5l3,8.8l2.9-8.8h3.4l-4.4,12l-0.8,2.2c-0.3,0.7-0.6,1.3-0.8,1.7s-0.6,0.7-0.9,0.9
		s-0.8,0.4-1.3,0.6s-1.1,0.2-1.7,0.2s-1.3-0.1-1.9-0.2L98,36.9c0.5,0.1,1,0.2,1.4,0.2c0.8,0,1.3-0.2,1.7-0.7s0.6-1,0.8-1.7
		L97.3,22.1z"/>
	<path class="st0" d="M115.6,34.5l-5-12.4h3.5l2.3,6.4l0.7,2.1c0.2-0.5,0.3-0.9,0.3-1.1c0.1-0.4,0.2-0.7,0.4-1.1l2.4-6.4h3.4
		l-4.9,12.4L115.6,34.5L115.6,34.5z"/>
	<path class="st0" d="M128,25.9l-3-0.5c0.3-1.2,0.9-2.1,1.7-2.7s2-0.9,3.7-0.9c1.5,0,2.6,0.2,3.3,0.5s1.2,0.8,1.5,1.3
		s0.4,1.5,0.4,2.9v3.8c0,1.1,0.1,1.9,0.2,2.4s0.3,1.1,0.6,1.7h-3.3c-0.1-0.2-0.2-0.5-0.3-1c-0.1-0.2-0.1-0.3-0.1-0.4
		c-0.6,0.5-1.2,1-1.8,1.2s-1.3,0.4-2.1,0.4c-1.3,0-2.3-0.3-3-1s-1.1-1.6-1.1-2.6c0-0.7,0.2-1.3,0.5-1.9s0.8-1,1.4-1.3
		s1.5-0.5,2.6-0.8c1.5-0.3,2.6-0.6,3.2-0.8v-0.3c0-0.6-0.2-1.1-0.5-1.4s-0.9-0.4-1.8-0.4c-0.6,0-1,0.1-1.4,0.3S128.2,25.3,128,25.9z
		 M132.4,28.6c-0.4,0.1-1.1,0.3-2,0.5s-1.5,0.4-1.8,0.6c-0.4,0.3-0.6,0.7-0.6,1.2s0.2,0.9,0.5,1.2c0.3,0.3,0.8,0.5,1.3,0.5
		c0.6,0,1.2-0.2,1.7-0.6c0.4-0.3,0.7-0.7,0.8-1.1c0.1-0.3,0.1-0.8,0.1-1.6L132.4,28.6L132.4,28.6z"/>
	<path class="st0" d="M150.2,34.5h-3.3v-6.4c0-1.3-0.1-2.2-0.2-2.6s-0.4-0.7-0.7-0.9s-0.7-0.3-1.1-0.3c-0.6,0-1.1,0.2-1.5,0.5
		s-0.8,0.7-0.9,1.2s-0.3,1.5-0.3,2.9v5.6h-3.3V22.1h3.1v1.8c1.1-1.4,2.5-2.1,4.1-2.1c0.7,0,1.4,0.1,2,0.4s1.1,0.6,1.4,1
		s0.5,0.9,0.6,1.4s0.2,1.3,0.2,2.2v7.7H150.2z"/>
	<path class="st0" d="M165,34.5h-3.1v-1.8c-0.5,0.7-1.1,1.2-1.8,1.6s-1.4,0.5-2.1,0.5c-1.4,0-2.7-0.6-3.7-1.7s-1.5-2.8-1.5-4.8
		c0-2.1,0.5-3.7,1.5-4.8s2.2-1.6,3.8-1.6c1.4,0,2.6,0.6,3.6,1.7v-6.2h3.3V34.5z M156.2,28.1c0,1.3,0.2,2.3,0.6,2.9
		c0.5,0.9,1.3,1.3,2.2,1.3c0.8,0,1.4-0.3,1.9-1s0.8-1.6,0.8-2.9c0-1.4-0.3-2.5-0.8-3.1s-1.2-0.9-2-0.9s-1.4,0.3-2,0.9
		S156.2,26.8,156.2,28.1z"/>
</g>
</svg>
